<svg version="1.1" xmlns="http://www.w3.org/2000/svg" viewBox="0 0 802.5278032090928 560.6349501836867" width="802.5278032090928" height="560.6349501836867">
  <!-- svg-source:excalidraw -->
  
  <defs>
    <style class="style-fonts">
      @font-face {
        font-family: "Virgil";
        src: url("https://excalidraw.com/Virgil.woff2");
      }
      @font-face {
        font-family: "Cascadia";
        src: url("https://excalidraw.com/Cascadia.woff2");
      }
      @font-face {
        font-family: "Assistant";
        src: url("https://excalidraw.com/Assistant-Regular.woff2");
      }
    </style>
    
  </defs>
  <rect x="0" y="0" width="802.5278032090928" height="560.6349501836867" fill="#ffffff"></rect><g stroke-linecap="round" transform="translate(249.6945054796006 222.634896777925) rotate(0 112.33331298828125 56.5)"><path d="M224.67 56.5 C224.67 58.35, 224.49 60.2, 224.13 62.04 C223.77 63.88, 223.22 65.71, 222.51 67.52 C221.79 69.33, 220.89 71.13, 219.83 72.9 C218.76 74.67, 217.52 76.42, 216.12 78.12 C214.71 79.83, 213.13 81.51, 211.4 83.13 C209.67 84.76, 207.77 86.35, 205.74 87.89 C203.7 89.42, 201.5 90.92, 199.17 92.34 C196.84 93.77, 194.36 95.15, 191.76 96.45 C189.17 97.76, 186.43 99, 183.6 100.18 C180.76 101.35, 177.79 102.45, 174.74 103.48 C171.69 104.5, 168.52 105.46, 165.29 106.33 C162.05 107.2, 158.71 107.99, 155.32 108.7 C151.93 109.41, 148.45 110.03, 144.94 110.57 C141.43 111.1, 137.85 111.55, 134.25 111.91 C130.65 112.27, 127 112.55, 123.34 112.73 C119.69 112.91, 116 113, 112.33 113 C108.66 113, 104.98 112.91, 101.32 112.73 C97.67 112.55, 94.02 112.27, 90.42 111.91 C86.82 111.55, 83.24 111.1, 79.72 110.57 C76.21 110.03, 72.74 109.41, 69.35 108.7 C65.95 107.99, 62.62 107.2, 59.38 106.33 C56.14 105.46, 52.98 104.5, 49.92 103.48 C46.87 102.45, 43.91 101.35, 41.07 100.18 C38.23 99, 35.5 97.76, 32.9 96.45 C30.31 95.15, 27.83 93.77, 25.5 92.34 C23.17 90.92, 20.97 89.42, 18.93 87.89 C16.89 86.35, 14.99 84.76, 13.26 83.13 C11.53 81.51, 9.96 79.83, 8.55 78.12 C7.15 76.42, 5.9 74.67, 4.84 72.9 C3.77 71.13, 2.87 69.33, 2.16 67.52 C1.44 65.71, 0.9 63.88, 0.54 62.04 C0.18 60.2, 0 58.35, 0 56.5 C0 54.65, 0.18 52.8, 0.54 50.96 C0.9 49.12, 1.44 47.29, 2.16 45.48 C2.87 43.67, 3.77 41.87, 4.84 40.1 C5.9 38.33, 7.15 36.58, 8.55 34.88 C9.96 33.17, 11.53 31.49, 13.26 29.87 C14.99 28.24, 16.89 26.65, 18.93 25.11 C20.97 23.58, 23.17 22.08, 25.5 20.66 C27.83 19.23, 30.31 17.85, 32.9 16.55 C35.5 15.24, 38.23 14, 41.07 12.82 C43.91 11.65, 46.87 10.55, 49.92 9.52 C52.98 8.5, 56.14 7.54, 59.38 6.67 C62.62 5.8, 65.95 5.01, 69.35 4.3 C72.74 3.59, 76.21 2.97, 79.72 2.43 C83.24 1.9, 86.82 1.45, 90.42 1.09 C94.02 0.73, 97.67 0.45, 101.32 0.27 C104.98 0.09, 108.66 0, 112.33 0 C116 0, 119.69 0.09, 123.34 0.27 C127 0.45, 130.65 0.73, 134.25 1.09 C137.85 1.45, 141.43 1.9, 144.94 2.43 C148.45 2.97, 151.93 3.59, 155.32 4.3 C158.71 5.01, 162.05 5.8, 165.29 6.67 C168.52 7.54, 171.69 8.5, 174.74 9.52 C177.79 10.55, 180.76 11.65, 183.6 12.82 C186.43 14, 189.17 15.24, 191.76 16.55 C194.36 17.85, 196.84 19.23, 199.17 20.66 C201.5 22.08, 203.7 23.58, 205.74 25.11 C207.77 26.65, 209.67 28.24, 211.4 29.87 C213.13 31.49, 214.71 33.17, 216.12 34.88 C217.52 36.58, 218.76 38.33, 219.83 40.1 C220.89 41.87, 221.79 43.67, 222.51 45.48 C223.22 47.29, 223.77 49.12, 224.13 50.96 C224.49 52.8, 224.58 55.58, 224.67 56.5 C224.76 57.42, 224.76 55.58, 224.67 56.5" stroke="none" stroke-width="0" fill="#ffec99"></path><path d="M224.67 56.5 C224.67 58.35, 224.49 60.2, 224.13 62.04 C223.77 63.88, 223.22 65.71, 222.51 67.52 C221.79 69.33, 220.89 71.13, 219.83 72.9 C218.76 74.67, 217.52 76.42, 216.12 78.12 C214.71 79.83, 213.13 81.51, 211.4 83.13 C209.67 84.76, 207.77 86.35, 205.74 87.89 C203.7 89.42, 201.5 90.92, 199.17 92.34 C196.84 93.77, 194.36 95.15, 191.76 96.45 C189.17 97.76, 186.43 99, 183.6 100.18 C180.76 101.35, 177.79 102.45, 174.74 103.48 C171.69 104.5, 168.52 105.46, 165.29 106.33 C162.05 107.2, 158.71 107.99, 155.32 108.7 C151.93 109.41, 148.45 110.03, 144.94 110.57 C141.43 111.1, 137.85 111.55, 134.25 111.91 C130.65 112.27, 127 112.55, 123.34 112.73 C119.69 112.91, 116 113, 112.33 113 C108.66 113, 104.98 112.91, 101.32 112.73 C97.67 112.55, 94.02 112.27, 90.42 111.91 C86.82 111.55, 83.24 111.1, 79.72 110.57 C76.21 110.03, 72.74 109.41, 69.35 108.7 C65.95 107.99, 62.62 107.2, 59.38 106.33 C56.14 105.46, 52.98 104.5, 49.92 103.48 C46.87 102.45, 43.91 101.35, 41.07 100.18 C38.23 99, 35.5 97.76, 32.9 96.45 C30.31 95.15, 27.83 93.77, 25.5 92.34 C23.17 90.92, 20.97 89.42, 18.93 87.89 C16.89 86.35, 14.99 84.76, 13.26 83.13 C11.53 81.51, 9.96 79.83, 8.55 78.12 C7.15 76.42, 5.9 74.67, 4.84 72.9 C3.77 71.13, 2.87 69.33, 2.16 67.52 C1.44 65.71, 0.9 63.88, 0.54 62.04 C0.18 60.2, 0 58.35, 0 56.5 C0 54.65, 0.18 52.8, 0.54 50.96 C0.9 49.12, 1.44 47.29, 2.16 45.48 C2.87 43.67, 3.77 41.87, 4.84 40.1 C5.9 38.33, 7.15 36.58, 8.55 34.88 C9.96 33.17, 11.53 31.49, 13.26 29.87 C14.99 28.24, 16.89 26.65, 18.93 25.11 C20.97 23.58, 23.17 22.08, 25.5 20.66 C27.83 19.23, 30.31 17.85, 32.9 16.55 C35.5 15.24, 38.23 14, 41.07 12.82 C43.91 11.65, 46.87 10.55, 49.92 9.52 C52.98 8.5, 56.14 7.54, 59.38 6.67 C62.62 5.8, 65.95 5.01, 69.35 4.3 C72.74 3.59, 76.21 2.97, 79.72 2.43 C83.24 1.9, 86.82 1.45, 90.42 1.09 C94.02 0.73, 97.67 0.45, 101.32 0.27 C104.98 0.09, 108.66 0, 112.33 0 C116 0, 119.69 0.09, 123.34 0.27 C127 0.45, 130.65 0.73, 134.25 1.09 C137.85 1.45, 141.43 1.9, 144.94 2.43 C148.45 2.97, 151.93 3.59, 155.32 4.3 C158.71 5.01, 162.05 5.8, 165.29 6.67 C168.52 7.54, 171.69 8.5, 174.74 9.52 C177.79 10.55, 180.76 11.65, 183.6 12.82 C186.43 14, 189.17 15.24, 191.76 16.55 C194.36 17.85, 196.84 19.23, 199.17 20.66 C201.5 22.08, 203.7 23.58, 205.74 25.11 C207.77 26.65, 209.67 28.24, 211.4 29.87 C213.13 31.49, 214.71 33.17, 216.12 34.88 C217.52 36.58, 218.76 38.33, 219.83 40.1 C220.89 41.87, 221.79 43.67, 222.51 45.48 C223.22 47.29, 223.77 49.12, 224.13 50.96 C224.49 52.8, 224.58 55.58, 224.67 56.5 C224.76 57.42, 224.76 55.58, 224.67 56.5" stroke="#1e1e1e" stroke-width="2" fill="none"></path></g><g transform="translate(293.60691328821724 263.08336364088507) rotate(0 68.4892578125 16.099999999999994)"><text x="68.4892578125" y="25.760546874999996" font-family="Helvetica, Segoe UI Emoji" font-size="28px" fill="#1e1e1e" text-anchor="middle" style="white-space: pre;" direction="ltr" dominant-baseline="alphabetic">Application</text></g><g stroke-linecap="round" transform="translate(12.861100938584968 232.3015914190383) rotate(0 61.666656494140625 32)"><path d="M123.33 32 C123.33 33.39, 123.16 34.8, 122.81 36.18 C122.46 37.56, 121.93 38.94, 121.23 40.28 C120.54 41.63, 119.67 42.96, 118.64 44.25 C117.61 45.53, 116.41 46.79, 115.07 48 C113.73 49.21, 112.22 50.38, 110.59 51.48 C108.96 52.58, 107.17 53.64, 105.27 54.63 C103.37 55.61, 101.34 56.54, 99.21 57.39 C97.08 58.23, 94.82 59.02, 92.5 59.71 C90.18 60.41, 87.74 61.03, 85.27 61.56 C82.79 62.1, 80.22 62.55, 77.63 62.91 C75.04 63.27, 72.38 63.54, 69.72 63.73 C67.06 63.91, 64.35 64, 61.67 64 C58.98 64, 56.28 63.91, 53.62 63.73 C50.96 63.54, 48.3 63.27, 45.71 62.91 C43.11 62.55, 40.55 62.1, 38.07 61.56 C35.59 61.03, 33.16 60.41, 30.83 59.71 C28.51 59.02, 26.25 58.23, 24.13 57.39 C22 56.54, 19.96 55.61, 18.06 54.63 C16.16 53.64, 14.38 52.58, 12.74 51.48 C11.11 50.38, 9.6 49.21, 8.26 48 C6.92 46.79, 5.72 45.53, 4.69 44.25 C3.67 42.96, 2.8 41.63, 2.1 40.28 C1.41 38.94, 0.88 37.56, 0.53 36.18 C0.18 34.8, 0 33.39, 0 32 C0 30.61, 0.18 29.2, 0.53 27.82 C0.88 26.44, 1.41 25.06, 2.1 23.72 C2.8 22.37, 3.67 21.04, 4.69 19.75 C5.72 18.47, 6.92 17.21, 8.26 16 C9.6 14.79, 11.11 13.62, 12.74 12.52 C14.38 11.42, 16.16 10.36, 18.06 9.37 C19.96 8.39, 22 7.46, 24.13 6.61 C26.25 5.77, 28.51 4.98, 30.83 4.29 C33.16 3.59, 35.59 2.97, 38.07 2.44 C40.55 1.9, 43.11 1.45, 45.71 1.09 C48.3 0.73, 50.96 0.46, 53.62 0.27 C56.28 0.09, 58.98 0, 61.67 0 C64.35 0, 67.06 0.09, 69.72 0.27 C72.38 0.46, 75.04 0.73, 77.63 1.09 C80.22 1.45, 82.79 1.9, 85.27 2.44 C87.74 2.97, 90.18 3.59, 92.5 4.29 C94.82 4.98, 97.08 5.77, 99.21 6.61 C101.34 7.46, 103.37 8.39, 105.27 9.37 C107.17 10.36, 108.96 11.42, 110.59 12.52 C112.22 13.62, 113.73 14.79, 115.07 16 C116.41 17.21, 117.61 18.47, 118.64 19.75 C119.67 21.04, 120.54 22.37, 121.23 23.72 C121.93 25.06, 122.46 26.44, 122.81 27.82 C123.16 29.2, 123.25 31.3, 123.33 32 C123.42 32.7, 123.42 31.3, 123.33 32" stroke="none" stroke-width="0" fill="#a5d8ff"></path><path d="M123.33 32 C123.33 33.39, 123.16 34.8, 122.81 36.18 C122.46 37.56, 121.93 38.94, 121.23 40.28 C120.54 41.63, 119.67 42.96, 118.64 44.25 C117.61 45.53, 116.41 46.79, 115.07 48 C113.73 49.21, 112.22 50.38, 110.59 51.48 C108.96 52.58, 107.17 53.64, 105.27 54.63 C103.37 55.61, 101.34 56.54, 99.21 57.39 C97.08 58.23, 94.82 59.02, 92.5 59.71 C90.18 60.41, 87.74 61.03, 85.27 61.56 C82.79 62.1, 80.22 62.55, 77.63 62.91 C75.04 63.27, 72.38 63.54, 69.72 63.73 C67.06 63.91, 64.35 64, 61.67 64 C58.98 64, 56.28 63.91, 53.62 63.73 C50.96 63.54, 48.3 63.27, 45.71 62.91 C43.11 62.55, 40.55 62.1, 38.07 61.56 C35.59 61.03, 33.16 60.41, 30.83 59.71 C28.51 59.02, 26.25 58.23, 24.13 57.39 C22 56.54, 19.96 55.61, 18.06 54.63 C16.16 53.64, 14.38 52.58, 12.74 51.48 C11.11 50.38, 9.6 49.21, 8.26 48 C6.92 46.79, 5.72 45.53, 4.69 44.25 C3.67 42.96, 2.8 41.63, 2.1 40.28 C1.41 38.94, 0.88 37.56, 0.53 36.18 C0.18 34.8, 0 33.39, 0 32 C0 30.61, 0.18 29.2, 0.53 27.82 C0.88 26.44, 1.41 25.06, 2.1 23.72 C2.8 22.37, 3.67 21.04, 4.69 19.75 C5.72 18.47, 6.92 17.21, 8.26 16 C9.6 14.79, 11.11 13.62, 12.74 12.52 C14.38 11.42, 16.16 10.36, 18.06 9.37 C19.96 8.39, 22 7.46, 24.13 6.61 C26.25 5.77, 28.51 4.98, 30.83 4.29 C33.16 3.59, 35.59 2.97, 38.07 2.44 C40.55 1.9, 43.11 1.45, 45.71 1.09 C48.3 0.73, 50.96 0.46, 53.62 0.27 C56.28 0.09, 58.98 0, 61.67 0 C64.35 0, 67.06 0.09, 69.72 0.27 C72.38 0.46, 75.04 0.73, 77.63 1.09 C80.22 1.45, 82.79 1.9, 85.27 2.44 C87.74 2.97, 90.18 3.59, 92.5 4.29 C94.82 4.98, 97.08 5.77, 99.21 6.61 C101.34 7.46, 103.37 8.39, 105.27 9.37 C107.17 10.36, 108.96 11.42, 110.59 12.52 C112.22 13.62, 113.73 14.79, 115.07 16 C116.41 17.21, 117.61 18.47, 118.64 19.75 C119.67 21.04, 120.54 22.37, 121.23 23.72 C121.93 25.06, 122.46 26.44, 122.81 27.82 C123.16 29.2, 123.25 31.3, 123.33 32 C123.42 32.7, 123.42 31.3, 123.33 32" stroke="#1e1e1e" stroke-width="2" fill="none"></path></g><g transform="translate(46.07811989011731 252.67417442106876) rotate(0 28.3447265625 11.5)"><text x="28.3447265625" y="18.400390625" font-family="Helvetica, Segoe UI Emoji" font-size="20px" fill="#1e1e1e" text-anchor="middle" style="white-space: pre;" direction="ltr" dominant-baseline="alphabetic">Admin</text></g><g stroke-linecap="round" transform="translate(40.17063092428532 124.82542128789993) rotate(0 64.66668701171875 41)"><path d="M129.33 41 C129.33 42.78, 129.15 44.58, 128.78 46.35 C128.41 48.12, 127.86 49.89, 127.13 51.61 C126.4 53.33, 125.49 55.04, 124.41 56.69 C123.33 58.34, 122.08 59.96, 120.67 61.5 C119.26 63.04, 117.68 64.54, 115.97 65.96 C114.26 67.37, 112.38 68.73, 110.39 69.99 C108.4 71.25, 106.27 72.44, 104.03 73.53 C101.8 74.61, 99.44 75.62, 97 76.51 C94.56 77.4, 92.01 78.2, 89.41 78.88 C86.81 79.56, 84.12 80.14, 81.4 80.6 C78.69 81.06, 75.9 81.42, 73.11 81.65 C70.32 81.88, 67.48 82, 64.67 82 C61.85 82, 59.02 81.88, 56.23 81.65 C53.44 81.42, 50.65 81.06, 47.93 80.6 C45.21 80.14, 42.52 79.56, 39.92 78.88 C37.32 78.2, 34.77 77.4, 32.33 76.51 C29.9 75.62, 27.53 74.61, 25.3 73.53 C23.07 72.44, 20.93 71.25, 18.94 69.99 C16.95 68.73, 15.08 67.37, 13.36 65.96 C11.65 64.54, 10.07 63.04, 8.66 61.5 C7.26 59.96, 6 58.34, 4.92 56.69 C3.85 55.04, 2.93 53.33, 2.2 51.61 C1.48 49.89, 0.92 48.12, 0.55 46.35 C0.19 44.58, 0 42.78, 0 41 C0 39.22, 0.19 37.42, 0.55 35.65 C0.92 33.88, 1.48 32.11, 2.2 30.39 C2.93 28.67, 3.85 26.96, 4.92 25.31 C6 23.66, 7.26 22.04, 8.66 20.5 C10.07 18.96, 11.65 17.46, 13.36 16.04 C15.08 14.63, 16.95 13.27, 18.94 12.01 C20.93 10.75, 23.07 9.56, 25.3 8.47 C27.53 7.39, 29.9 6.38, 32.33 5.49 C34.77 4.6, 37.32 3.8, 39.92 3.12 C42.52 2.44, 45.21 1.86, 47.93 1.4 C50.65 0.94, 53.44 0.58, 56.23 0.35 C59.02 0.12, 61.85 0, 64.67 0 C67.48 0, 70.32 0.12, 73.11 0.35 C75.9 0.58, 78.69 0.94, 81.4 1.4 C84.12 1.86, 86.81 2.44, 89.41 3.12 C92.01 3.8, 94.56 4.6, 97 5.49 C99.44 6.38, 101.8 7.39, 104.03 8.47 C106.27 9.56, 108.4 10.75, 110.39 12.01 C112.38 13.27, 114.26 14.63, 115.97 16.04 C117.68 17.46, 119.26 18.96, 120.67 20.5 C122.08 22.04, 123.33 23.66, 124.41 25.31 C125.49 26.96, 126.4 28.67, 127.13 30.39 C127.86 32.11, 128.41 33.88, 128.78 35.65 C129.15 37.42, 129.24 40.11, 129.33 41 C129.43 41.89, 129.43 40.11, 129.33 41" stroke="none" stroke-width="0" fill="#a5d8ff"></path><path d="M129.33 41 C129.33 42.78, 129.15 44.58, 128.78 46.35 C128.41 48.12, 127.86 49.89, 127.13 51.61 C126.4 53.33, 125.49 55.04, 124.41 56.69 C123.33 58.34, 122.08 59.96, 120.67 61.5 C119.26 63.04, 117.68 64.54, 115.97 65.96 C114.26 67.37, 112.38 68.73, 110.39 69.99 C108.4 71.25, 106.27 72.44, 104.03 73.53 C101.8 74.61, 99.44 75.62, 97 76.51 C94.56 77.4, 92.01 78.2, 89.41 78.88 C86.81 79.56, 84.12 80.14, 81.4 80.6 C78.69 81.06, 75.9 81.42, 73.11 81.65 C70.32 81.88, 67.48 82, 64.67 82 C61.85 82, 59.02 81.88, 56.23 81.65 C53.44 81.42, 50.65 81.06, 47.93 80.6 C45.21 80.14, 42.52 79.56, 39.92 78.88 C37.32 78.2, 34.77 77.4, 32.33 76.51 C29.9 75.62, 27.53 74.61, 25.3 73.53 C23.07 72.44, 20.93 71.25, 18.94 69.99 C16.95 68.73, 15.08 67.37, 13.36 65.96 C11.65 64.54, 10.07 63.04, 8.66 61.5 C7.26 59.96, 6 58.34, 4.92 56.69 C3.85 55.04, 2.93 53.33, 2.2 51.61 C1.48 49.89, 0.92 48.12, 0.55 46.35 C0.19 44.58, 0 42.78, 0 41 C0 39.22, 0.19 37.42, 0.55 35.65 C0.92 33.88, 1.48 32.11, 2.2 30.39 C2.93 28.67, 3.85 26.96, 4.92 25.31 C6 23.66, 7.26 22.04, 8.66 20.5 C10.07 18.96, 11.65 17.46, 13.36 16.04 C15.08 14.63, 16.95 13.27, 18.94 12.01 C20.93 10.75, 23.07 9.56, 25.3 8.47 C27.53 7.39, 29.9 6.38, 32.33 5.49 C34.77 4.6, 37.32 3.8, 39.92 3.12 C42.52 2.44, 45.21 1.86, 47.93 1.4 C50.65 0.94, 53.44 0.58, 56.23 0.35 C59.02 0.12, 61.85 0, 64.67 0 C67.48 0, 70.32 0.12, 73.11 0.35 C75.9 0.58, 78.69 0.94, 81.4 1.4 C84.12 1.86, 86.81 2.44, 89.41 3.12 C92.01 3.8, 94.56 4.6, 97 5.49 C99.44 6.38, 101.8 7.39, 104.03 8.47 C106.27 9.56, 108.4 10.75, 110.39 12.01 C112.38 13.27, 114.26 14.63, 115.97 16.04 C117.68 17.46, 119.26 18.96, 120.67 20.5 C122.08 22.04, 123.33 23.66, 124.41 25.31 C125.49 26.96, 126.4 28.67, 127.13 30.39 C127.86 32.11, 128.41 33.88, 128.78 35.65 C129.15 37.42, 129.24 40.11, 129.33 41 C129.43 41.89, 129.43 40.11, 129.33 41" stroke="#1e1e1e" stroke-width="2" fill="none"></path></g><g transform="translate(64.58176815814971 154.33404325925147) rotate(0 40.029296875 11.5)"><text x="40.029296875" y="18.400390625" font-family="Helvetica, Segoe UI Emoji" font-size="20px" fill="#1e1e1e" text-anchor="middle" style="white-space: pre;" direction="ltr" dominant-baseline="alphabetic">Données</text></g><g stroke-linecap="round" transform="translate(198.79763890826484 64.23011035010924) rotate(0 51 29.666671752929688)"><path d="M102 29.67 C102 31.07, 101.83 32.5, 101.48 33.89 C101.14 35.28, 100.62 36.67, 99.93 38.02 C99.25 39.38, 98.4 40.71, 97.39 41.99 C96.39 43.27, 95.21 44.52, 93.9 45.71 C92.6 46.89, 91.13 48.03, 89.54 49.09 C87.96 50.16, 86.23 51.17, 84.4 52.09 C82.57 53.01, 80.61 53.86, 78.57 54.62 C76.54 55.38, 74.39 56.07, 72.19 56.65 C69.99 57.24, 67.69 57.74, 65.37 58.13 C63.05 58.53, 60.65 58.83, 58.26 59.03 C55.86 59.23, 53.42 59.33, 51 59.33 C48.58 59.33, 46.14 59.23, 43.74 59.03 C41.35 58.83, 38.95 58.53, 36.63 58.13 C34.31 57.74, 32.01 57.24, 29.81 56.65 C27.61 56.07, 25.46 55.38, 23.43 54.62 C21.39 53.86, 19.43 53.01, 17.6 52.09 C15.77 51.17, 14.04 50.16, 12.46 49.09 C10.87 48.03, 9.4 46.89, 8.1 45.71 C6.79 44.52, 5.61 43.27, 4.61 41.99 C3.6 40.71, 2.75 39.38, 2.07 38.02 C1.38 36.67, 0.86 35.28, 0.52 33.89 C0.17 32.5, 0 31.07, 0 29.67 C0 28.26, 0.17 26.84, 0.52 25.44 C0.86 24.05, 1.38 22.66, 2.07 21.31 C2.75 19.96, 3.6 18.62, 4.61 17.34 C5.61 16.06, 6.79 14.81, 8.1 13.63 C9.4 12.44, 10.87 11.3, 12.46 10.24 C14.04 9.18, 15.77 8.17, 17.6 7.25 C19.43 6.32, 21.39 5.47, 23.43 4.71 C25.46 3.95, 27.61 3.27, 29.81 2.68 C32.01 2.1, 34.31 1.6, 36.63 1.2 C38.95 0.81, 41.35 0.5, 43.74 0.3 C46.14 0.1, 48.58 0, 51 0 C53.42 0, 55.86 0.1, 58.26 0.3 C60.65 0.5, 63.05 0.81, 65.37 1.2 C67.69 1.6, 69.99 2.1, 72.19 2.68 C74.39 3.27, 76.54 3.95, 78.57 4.71 C80.61 5.47, 82.57 6.32, 84.4 7.25 C86.23 8.17, 87.96 9.18, 89.54 10.24 C91.13 11.3, 92.6 12.44, 93.9 13.63 C95.21 14.81, 96.39 16.06, 97.39 17.34 C98.4 18.62, 99.25 19.96, 99.93 21.31 C100.62 22.66, 101.14 24.05, 101.48 25.44 C101.83 26.84, 101.91 28.96, 102 29.67 C102.09 30.37, 102.09 28.96, 102 29.67" stroke="none" stroke-width="0" fill="#a5d8ff"></path><path d="M102 29.67 C102 31.07, 101.83 32.5, 101.48 33.89 C101.14 35.28, 100.62 36.67, 99.93 38.02 C99.25 39.38, 98.4 40.71, 97.39 41.99 C96.39 43.27, 95.21 44.52, 93.9 45.71 C92.6 46.89, 91.13 48.03, 89.54 49.09 C87.96 50.16, 86.23 51.17, 84.4 52.09 C82.57 53.01, 80.61 53.86, 78.57 54.62 C76.54 55.38, 74.39 56.07, 72.19 56.65 C69.99 57.24, 67.69 57.74, 65.37 58.13 C63.05 58.53, 60.65 58.83, 58.26 59.03 C55.86 59.23, 53.42 59.33, 51 59.33 C48.58 59.33, 46.14 59.23, 43.74 59.03 C41.35 58.83, 38.95 58.53, 36.63 58.13 C34.31 57.74, 32.01 57.24, 29.81 56.65 C27.61 56.07, 25.46 55.38, 23.43 54.62 C21.39 53.86, 19.43 53.01, 17.6 52.09 C15.77 51.17, 14.04 50.16, 12.46 49.09 C10.87 48.03, 9.4 46.89, 8.1 45.71 C6.79 44.52, 5.61 43.27, 4.61 41.99 C3.6 40.71, 2.75 39.38, 2.07 38.02 C1.38 36.67, 0.86 35.28, 0.52 33.89 C0.17 32.5, 0 31.07, 0 29.67 C0 28.26, 0.17 26.84, 0.52 25.44 C0.86 24.05, 1.38 22.66, 2.07 21.31 C2.75 19.96, 3.6 18.62, 4.61 17.34 C5.61 16.06, 6.79 14.81, 8.1 13.63 C9.4 12.44, 10.87 11.3, 12.46 10.24 C14.04 9.18, 15.77 8.17, 17.6 7.25 C19.43 6.32, 21.39 5.47, 23.43 4.71 C25.46 3.95, 27.61 3.27, 29.81 2.68 C32.01 2.1, 34.31 1.6, 36.63 1.2 C38.95 0.81, 41.35 0.5, 43.74 0.3 C46.14 0.1, 48.58 0, 51 0 C53.42 0, 55.86 0.1, 58.26 0.3 C60.65 0.5, 63.05 0.81, 65.37 1.2 C67.69 1.6, 69.99 2.1, 72.19 2.68 C74.39 3.27, 76.54 3.95, 78.57 4.71 C80.61 5.47, 82.57 6.32, 84.4 7.25 C86.23 8.17, 87.96 9.18, 89.54 10.24 C91.13 11.3, 92.6 12.44, 93.9 13.63 C95.21 14.81, 96.39 16.06, 97.39 17.34 C98.4 18.62, 99.25 19.96, 99.93 21.31 C100.62 22.66, 101.14 24.05, 101.48 25.44 C101.83 26.84, 101.91 28.96, 102 29.67 C102.09 30.37, 102.09 28.96, 102 29.67" stroke="#1e1e1e" stroke-width="2" fill="none"></path></g><g transform="translate(228.62191181775097 82.41927733130694) rotate(0 21.11328125 11.5)"><text x="21.11328125" y="18.400390625" font-family="Helvetica, Segoe UI Emoji" font-size="20px" fill="#1e1e1e" text-anchor="middle" style="white-space: pre;" direction="ltr" dominant-baseline="alphabetic">User</text></g><g stroke-linecap="round" transform="translate(377.28960406591 10) rotate(0 100.33334350585938 58)"><path d="M200.67 58 C200.67 60.02, 200.48 62.05, 200.12 64.06 C199.75 66.07, 199.2 68.08, 198.47 70.06 C197.75 72.04, 196.84 74, 195.76 75.92 C194.68 77.84, 193.41 79.74, 191.99 81.59 C190.57 83.44, 188.97 85.25, 187.22 87 C185.48 88.75, 183.56 90.46, 181.5 92.09 C179.45 93.73, 177.23 95.31, 174.9 96.81 C172.56 98.31, 170.07 99.75, 167.47 101.1 C164.87 102.45, 162.14 103.74, 159.31 104.92 C156.48 106.11, 153.53 107.22, 150.5 108.23 C147.47 109.24, 144.34 110.16, 141.14 110.99 C137.95 111.81, 134.66 112.54, 131.34 113.16 C128.01 113.79, 124.61 114.31, 121.19 114.73 C117.77 115.15, 114.3 115.47, 110.82 115.68 C107.34 115.89, 103.83 116, 100.33 116 C96.84 116, 93.32 115.89, 89.85 115.68 C86.37 115.47, 82.89 115.15, 79.47 114.73 C76.05 114.31, 72.65 113.79, 69.33 113.16 C66 112.54, 62.72 111.81, 59.52 110.99 C56.33 110.16, 53.19 109.24, 50.17 108.23 C47.14 107.22, 44.19 106.11, 41.36 104.92 C38.53 103.74, 35.8 102.45, 33.2 101.1 C30.6 99.75, 28.11 98.31, 25.77 96.81 C23.43 95.31, 21.22 93.73, 19.16 92.09 C17.11 90.46, 15.19 88.75, 13.44 87 C11.69 85.25, 10.1 83.44, 8.67 81.59 C7.25 79.74, 5.99 77.84, 4.91 75.92 C3.83 74, 2.92 72.04, 2.19 70.06 C1.47 68.08, 0.92 66.07, 0.55 64.06 C0.18 62.05, 0 60.02, 0 58 C0 55.98, 0.18 53.95, 0.55 51.94 C0.92 49.93, 1.47 47.92, 2.19 45.94 C2.92 43.96, 3.83 42, 4.91 40.08 C5.99 38.16, 7.25 36.26, 8.67 34.41 C10.1 32.56, 11.69 30.75, 13.44 29 C15.19 27.25, 17.11 25.54, 19.16 23.91 C21.22 22.27, 23.43 20.69, 25.77 19.19 C28.11 17.69, 30.6 16.25, 33.2 14.9 C35.8 13.55, 38.53 12.26, 41.36 11.08 C44.19 9.89, 47.14 8.78, 50.17 7.77 C53.19 6.76, 56.33 5.84, 59.52 5.01 C62.72 4.19, 66 3.46, 69.33 2.84 C72.65 2.21, 76.05 1.69, 79.47 1.27 C82.89 0.85, 86.37 0.53, 89.85 0.32 C93.32 0.11, 96.84 0, 100.33 0 C103.83 0, 107.34 0.11, 110.82 0.32 C114.3 0.53, 117.77 0.85, 121.19 1.27 C124.61 1.69, 128.01 2.21, 131.34 2.84 C134.66 3.46, 137.95 4.19, 141.14 5.01 C144.34 5.84, 147.47 6.76, 150.5 7.77 C153.53 8.78, 156.48 9.89, 159.31 11.08 C162.14 12.26, 164.87 13.55, 167.47 14.9 C170.07 16.25, 172.56 17.69, 174.9 19.19 C177.23 20.69, 179.45 22.27, 181.5 23.91 C183.56 25.54, 185.48 27.25, 187.22 29 C188.97 30.75, 190.57 32.56, 191.99 34.41 C193.41 36.26, 194.68 38.16, 195.76 40.08 C196.84 42, 197.75 43.96, 198.47 45.94 C199.2 47.92, 199.75 49.93, 200.12 51.94 C200.48 53.95, 200.58 56.99, 200.67 58 C200.76 59.01, 200.76 56.99, 200.67 58" stroke="none" stroke-width="0" fill="#a5d8ff"></path><path d="M200.67 58 C200.67 60.02, 200.48 62.05, 200.12 64.06 C199.75 66.07, 199.2 68.08, 198.47 70.06 C197.75 72.04, 196.84 74, 195.76 75.92 C194.68 77.84, 193.41 79.74, 191.99 81.59 C190.57 83.44, 188.97 85.25, 187.22 87 C185.48 88.75, 183.56 90.46, 181.5 92.09 C179.45 93.73, 177.23 95.31, 174.9 96.81 C172.56 98.31, 170.07 99.75, 167.47 101.1 C164.87 102.45, 162.14 103.74, 159.31 104.92 C156.48 106.11, 153.53 107.22, 150.5 108.23 C147.47 109.24, 144.34 110.16, 141.14 110.99 C137.95 111.81, 134.66 112.54, 131.34 113.16 C128.01 113.79, 124.61 114.31, 121.19 114.73 C117.77 115.15, 114.3 115.47, 110.82 115.68 C107.34 115.89, 103.83 116, 100.33 116 C96.84 116, 93.32 115.89, 89.85 115.68 C86.37 115.47, 82.89 115.15, 79.47 114.73 C76.05 114.31, 72.65 113.79, 69.33 113.16 C66 112.54, 62.72 111.81, 59.52 110.99 C56.33 110.16, 53.19 109.24, 50.17 108.23 C47.14 107.22, 44.19 106.11, 41.36 104.92 C38.53 103.74, 35.8 102.45, 33.2 101.1 C30.6 99.75, 28.11 98.31, 25.77 96.81 C23.43 95.31, 21.22 93.73, 19.16 92.09 C17.11 90.46, 15.19 88.75, 13.44 87 C11.69 85.25, 10.1 83.44, 8.67 81.59 C7.25 79.74, 5.99 77.84, 4.91 75.92 C3.83 74, 2.92 72.04, 2.19 70.06 C1.47 68.08, 0.92 66.07, 0.55 64.06 C0.18 62.05, 0 60.02, 0 58 C0 55.98, 0.18 53.95, 0.55 51.94 C0.92 49.93, 1.47 47.92, 2.19 45.94 C2.92 43.96, 3.83 42, 4.91 40.08 C5.99 38.16, 7.25 36.26, 8.67 34.41 C10.1 32.56, 11.69 30.75, 13.44 29 C15.19 27.25, 17.11 25.54, 19.16 23.91 C21.22 22.27, 23.43 20.69, 25.77 19.19 C28.11 17.69, 30.6 16.25, 33.2 14.9 C35.8 13.55, 38.53 12.26, 41.36 11.08 C44.19 9.89, 47.14 8.78, 50.17 7.77 C53.19 6.76, 56.33 5.84, 59.52 5.01 C62.72 4.19, 66 3.46, 69.33 2.84 C72.65 2.21, 76.05 1.69, 79.47 1.27 C82.89 0.85, 86.37 0.53, 89.85 0.32 C93.32 0.11, 96.84 0, 100.33 0 C103.83 0, 107.34 0.11, 110.82 0.32 C114.3 0.53, 117.77 0.85, 121.19 1.27 C124.61 1.69, 128.01 2.21, 131.34 2.84 C134.66 3.46, 137.95 4.19, 141.14 5.01 C144.34 5.84, 147.47 6.76, 150.5 7.77 C153.53 8.78, 156.48 9.89, 159.31 11.08 C162.14 12.26, 164.87 13.55, 167.47 14.9 C170.07 16.25, 172.56 17.69, 174.9 19.19 C177.23 20.69, 179.45 22.27, 181.5 23.91 C183.56 25.54, 185.48 27.25, 187.22 29 C188.97 30.75, 190.57 32.56, 191.99 34.41 C193.41 36.26, 194.68 38.16, 195.76 40.08 C196.84 42, 197.75 43.96, 198.47 45.94 C199.2 47.92, 199.75 49.93, 200.12 51.94 C200.48 53.95, 200.58 56.99, 200.67 58 C200.76 59.01, 200.76 56.99, 200.67 58" stroke="#1e1e1e" stroke-width="2" fill="none"></path></g><g transform="translate(416.538864687157 44.98780669118024) rotate(0 61.1376953125 23)"><text x="61.1376953125" y="18.400390625" font-family="Helvetica, Segoe UI Emoji" font-size="20px" fill="#1e1e1e" text-anchor="middle" style="white-space: pre;" direction="ltr" dominant-baseline="alphabetic">Consulter les </text><text x="61.1376953125" y="41.400390625" font-family="Helvetica, Segoe UI Emoji" font-size="20px" fill="#1e1e1e" text-anchor="middle" style="white-space: pre;" direction="ltr" dominant-baseline="alphabetic">résultats</text></g><g stroke-linecap="round" transform="translate(544.3610704210068 129.63491203671407) rotate(0 87 41)"><path d="M174 41 C174 42.53, 173.82 44.07, 173.45 45.59 C173.09 47.11, 172.54 48.63, 171.82 50.12 C171.1 51.62, 170.19 53.1, 169.12 54.54 C168.05 55.99, 166.79 57.41, 165.38 58.79 C163.98 60.17, 162.39 61.52, 160.67 62.81 C158.94 64.11, 157.04 65.37, 155.02 66.56 C152.99 67.76, 150.81 68.91, 148.52 69.99 C146.22 71.07, 143.78 72.1, 141.24 73.06 C138.71 74.01, 136.04 74.9, 133.29 75.72 C130.54 76.53, 127.67 77.28, 124.75 77.94 C121.82 78.6, 118.8 79.19, 115.73 79.7 C112.67 80.2, 109.52 80.63, 106.36 80.97 C103.19 81.31, 99.97 81.57, 96.74 81.74 C93.51 81.91, 90.25 82, 87 82 C83.75 82, 80.49 81.91, 77.26 81.74 C74.03 81.57, 70.81 81.31, 67.64 80.97 C64.48 80.63, 61.33 80.2, 58.27 79.7 C55.2 79.19, 52.18 78.6, 49.25 77.94 C46.33 77.28, 43.46 76.53, 40.71 75.72 C37.96 74.9, 35.29 74.01, 32.76 73.06 C30.22 72.1, 27.78 71.07, 25.48 69.99 C23.19 68.91, 21.01 67.76, 18.98 66.56 C16.96 65.37, 15.06 64.11, 13.33 62.81 C11.61 61.52, 10.02 60.17, 8.62 58.79 C7.21 57.41, 5.95 55.99, 4.88 54.54 C3.81 53.1, 2.9 51.62, 2.18 50.12 C1.46 48.63, 0.91 47.11, 0.55 45.59 C0.18 44.07, 0 42.53, 0 41 C0 39.47, 0.18 37.93, 0.55 36.41 C0.91 34.89, 1.46 33.37, 2.18 31.88 C2.9 30.38, 3.81 28.9, 4.88 27.46 C5.95 26.01, 7.21 24.59, 8.62 23.21 C10.02 21.83, 11.61 20.48, 13.33 19.19 C15.06 17.89, 16.96 16.63, 18.98 15.44 C21.01 14.24, 23.19 13.09, 25.48 12.01 C27.78 10.93, 30.22 9.9, 32.76 8.94 C35.29 7.99, 37.96 7.1, 40.71 6.28 C43.46 5.47, 46.33 4.72, 49.25 4.06 C52.18 3.4, 55.2 2.81, 58.27 2.3 C61.33 1.8, 64.48 1.37, 67.64 1.03 C70.81 0.69, 74.03 0.43, 77.26 0.26 C80.49 0.09, 83.75 0, 87 0 C90.25 0, 93.51 0.09, 96.74 0.26 C99.97 0.43, 103.19 0.69, 106.36 1.03 C109.52 1.37, 112.67 1.8, 115.73 2.3 C118.8 2.81, 121.82 3.4, 124.75 4.06 C127.67 4.72, 130.54 5.47, 133.29 6.28 C136.04 7.1, 138.71 7.99, 141.24 8.94 C143.78 9.9, 146.22 10.93, 148.52 12.01 C150.81 13.09, 152.99 14.24, 155.02 15.44 C157.04 16.63, 158.94 17.89, 160.67 19.19 C162.39 20.48, 163.98 21.83, 165.38 23.21 C166.79 24.59, 168.05 26.01, 169.12 27.46 C170.19 28.9, 171.1 30.38, 171.82 31.88 C172.54 33.37, 173.09 34.89, 173.45 36.41 C173.82 37.93, 173.91 40.23, 174 41 C174.09 41.77, 174.09 40.23, 174 41" stroke="none" stroke-width="0" fill="#a5d8ff"></path><path d="M174 41 C174 42.53, 173.82 44.07, 173.45 45.59 C173.09 47.11, 172.54 48.63, 171.82 50.12 C171.1 51.62, 170.19 53.1, 169.12 54.54 C168.05 55.99, 166.79 57.41, 165.38 58.79 C163.98 60.17, 162.39 61.52, 160.67 62.81 C158.94 64.11, 157.04 65.37, 155.02 66.56 C152.99 67.76, 150.81 68.91, 148.52 69.99 C146.22 71.07, 143.78 72.1, 141.24 73.06 C138.71 74.01, 136.04 74.9, 133.29 75.72 C130.54 76.53, 127.67 77.28, 124.75 77.94 C121.82 78.6, 118.8 79.19, 115.73 79.7 C112.67 80.2, 109.52 80.63, 106.36 80.97 C103.19 81.31, 99.97 81.57, 96.74 81.74 C93.51 81.91, 90.25 82, 87 82 C83.75 82, 80.49 81.91, 77.26 81.74 C74.03 81.57, 70.81 81.31, 67.64 80.97 C64.48 80.63, 61.33 80.2, 58.27 79.7 C55.2 79.19, 52.18 78.6, 49.25 77.94 C46.33 77.28, 43.46 76.53, 40.71 75.72 C37.96 74.9, 35.29 74.01, 32.76 73.06 C30.22 72.1, 27.78 71.07, 25.48 69.99 C23.19 68.91, 21.01 67.76, 18.98 66.56 C16.96 65.37, 15.06 64.11, 13.33 62.81 C11.61 61.52, 10.02 60.17, 8.62 58.79 C7.21 57.41, 5.95 55.99, 4.88 54.54 C3.81 53.1, 2.9 51.62, 2.18 50.12 C1.46 48.63, 0.91 47.11, 0.55 45.59 C0.18 44.07, 0 42.53, 0 41 C0 39.47, 0.18 37.93, 0.55 36.41 C0.91 34.89, 1.46 33.37, 2.18 31.88 C2.9 30.38, 3.81 28.9, 4.88 27.46 C5.95 26.01, 7.21 24.59, 8.62 23.21 C10.02 21.83, 11.61 20.48, 13.33 19.19 C15.06 17.89, 16.96 16.63, 18.98 15.44 C21.01 14.24, 23.19 13.09, 25.48 12.01 C27.78 10.93, 30.22 9.9, 32.76 8.94 C35.29 7.99, 37.96 7.1, 40.71 6.28 C43.46 5.47, 46.33 4.72, 49.25 4.06 C52.18 3.4, 55.2 2.81, 58.27 2.3 C61.33 1.8, 64.48 1.37, 67.64 1.03 C70.81 0.69, 74.03 0.43, 77.26 0.26 C80.49 0.09, 83.75 0, 87 0 C90.25 0, 93.51 0.09, 96.74 0.26 C99.97 0.43, 103.19 0.69, 106.36 1.03 C109.52 1.37, 112.67 1.8, 115.73 2.3 C118.8 2.81, 121.82 3.4, 124.75 4.06 C127.67 4.72, 130.54 5.47, 133.29 6.28 C136.04 7.1, 138.71 7.99, 141.24 8.94 C143.78 9.9, 146.22 10.93, 148.52 12.01 C150.81 13.09, 152.99 14.24, 155.02 15.44 C157.04 16.63, 158.94 17.89, 160.67 19.19 C162.39 20.48, 163.98 21.83, 165.38 23.21 C166.79 24.59, 168.05 26.01, 169.12 27.46 C170.19 28.9, 171.1 30.38, 171.82 31.88 C172.54 33.37, 173.09 34.89, 173.45 36.41 C173.82 37.93, 173.91 40.23, 174 41 C174.09 41.77, 174.09 40.23, 174 41" stroke="#1e1e1e" stroke-width="2" fill="none"></path></g><g transform="translate(585.7666085827772 159.14353400806561) rotate(0 45.57617187500006 11.5)"><text x="45.576171875" y="18.400390625" font-family="Helvetica, Segoe UI Emoji" font-size="20px" fill="#1e1e1e" text-anchor="middle" style="white-space: pre;" direction="ltr" dominant-baseline="alphabetic">Inscription</text></g><g stroke-linecap="round" transform="translate(577.861116197374 235.30157616024923) rotate(0 107.33334350585938 58)"><path d="M214.67 58 C214.67 60.02, 214.47 62.05, 214.08 64.06 C213.69 66.07, 213.1 68.08, 212.32 70.06 C211.54 72.04, 210.57 74, 209.41 75.92 C208.26 77.84, 206.91 79.74, 205.39 81.59 C203.87 83.44, 202.16 85.25, 200.29 87 C198.42 88.75, 196.37 90.46, 194.17 92.09 C191.97 93.73, 189.6 95.31, 187.1 96.81 C184.6 98.31, 181.93 99.75, 179.15 101.1 C176.37 102.45, 173.45 103.74, 170.42 104.92 C167.4 106.11, 164.24 107.22, 161 108.23 C157.76 109.24, 154.41 110.16, 150.99 110.99 C147.57 111.81, 144.06 112.54, 140.5 113.16 C136.94 113.79, 133.31 114.31, 129.65 114.73 C125.99 115.15, 122.27 115.47, 118.55 115.68 C114.83 115.89, 111.07 116, 107.33 116 C103.59 116, 99.83 115.89, 96.11 115.68 C92.39 115.47, 88.68 115.15, 85.02 114.73 C81.36 114.31, 77.72 113.79, 74.17 113.16 C70.61 112.54, 67.09 111.81, 63.68 110.99 C60.26 110.16, 56.91 109.24, 53.67 108.23 C50.43 107.22, 47.27 106.11, 44.24 104.92 C41.22 103.74, 38.29 102.45, 35.51 101.1 C32.73 99.75, 30.07 98.31, 27.57 96.81 C25.07 95.31, 22.7 93.73, 20.5 92.09 C18.3 90.46, 16.25 88.75, 14.38 87 C12.51 85.25, 10.8 83.44, 9.28 81.59 C7.76 79.74, 6.41 77.84, 5.25 75.92 C4.1 74, 3.12 72.04, 2.35 70.06 C1.57 68.08, 0.98 66.07, 0.59 64.06 C0.2 62.05, 0 60.02, 0 58 C0 55.98, 0.2 53.95, 0.59 51.94 C0.98 49.93, 1.57 47.92, 2.35 45.94 C3.12 43.96, 4.1 42, 5.25 40.08 C6.41 38.16, 7.76 36.26, 9.28 34.41 C10.8 32.56, 12.51 30.75, 14.38 29 C16.25 27.25, 18.3 25.54, 20.5 23.91 C22.7 22.27, 25.07 20.69, 27.57 19.19 C30.07 17.69, 32.73 16.25, 35.51 14.9 C38.29 13.55, 41.22 12.26, 44.24 11.08 C47.27 9.89, 50.43 8.78, 53.67 7.77 C56.91 6.76, 60.26 5.84, 63.68 5.01 C67.09 4.19, 70.61 3.46, 74.17 2.84 C77.72 2.21, 81.36 1.69, 85.02 1.27 C88.68 0.85, 92.39 0.53, 96.11 0.32 C99.83 0.11, 103.59 0, 107.33 0 C111.07 0, 114.83 0.11, 118.55 0.32 C122.27 0.53, 125.99 0.85, 129.65 1.27 C133.31 1.69, 136.94 2.21, 140.5 2.84 C144.06 3.46, 147.57 4.19, 150.99 5.01 C154.41 5.84, 157.76 6.76, 161 7.77 C164.24 8.78, 167.4 9.89, 170.42 11.08 C173.45 12.26, 176.37 13.55, 179.15 14.9 C181.93 16.25, 184.6 17.69, 187.1 19.19 C189.6 20.69, 191.97 22.27, 194.17 23.91 C196.37 25.54, 198.42 27.25, 200.29 29 C202.16 30.75, 203.87 32.56, 205.39 34.41 C206.91 36.26, 208.26 38.16, 209.41 40.08 C210.57 42, 211.54 43.96, 212.32 45.94 C213.1 47.92, 213.69 49.93, 214.08 51.94 C214.47 53.95, 214.57 56.99, 214.67 58 C214.76 59.01, 214.76 56.99, 214.67 58" stroke="none" stroke-width="0" fill="#a5d8ff"></path><path d="M214.67 58 C214.67 60.02, 214.47 62.05, 214.08 64.06 C213.69 66.07, 213.1 68.08, 212.32 70.06 C211.54 72.04, 210.57 74, 209.41 75.92 C208.26 77.84, 206.91 79.74, 205.39 81.59 C203.87 83.44, 202.16 85.25, 200.29 87 C198.42 88.75, 196.37 90.46, 194.17 92.09 C191.97 93.73, 189.6 95.31, 187.1 96.81 C184.6 98.31, 181.93 99.75, 179.15 101.1 C176.37 102.45, 173.45 103.74, 170.42 104.92 C167.4 106.11, 164.24 107.22, 161 108.23 C157.76 109.24, 154.41 110.16, 150.99 110.99 C147.57 111.81, 144.06 112.54, 140.5 113.16 C136.94 113.79, 133.31 114.31, 129.65 114.73 C125.99 115.15, 122.27 115.47, 118.55 115.68 C114.83 115.89, 111.07 116, 107.33 116 C103.59 116, 99.83 115.89, 96.11 115.68 C92.39 115.47, 88.68 115.15, 85.02 114.73 C81.36 114.31, 77.72 113.79, 74.17 113.16 C70.61 112.54, 67.09 111.81, 63.68 110.99 C60.26 110.16, 56.91 109.24, 53.67 108.23 C50.43 107.22, 47.27 106.11, 44.24 104.92 C41.22 103.74, 38.29 102.45, 35.51 101.1 C32.73 99.75, 30.07 98.31, 27.57 96.81 C25.07 95.31, 22.7 93.73, 20.5 92.09 C18.3 90.46, 16.25 88.75, 14.38 87 C12.51 85.25, 10.8 83.44, 9.28 81.59 C7.76 79.74, 6.41 77.84, 5.25 75.92 C4.1 74, 3.12 72.04, 2.35 70.06 C1.57 68.08, 0.98 66.07, 0.59 64.06 C0.2 62.05, 0 60.02, 0 58 C0 55.98, 0.2 53.95, 0.59 51.94 C0.98 49.93, 1.57 47.92, 2.35 45.94 C3.12 43.96, 4.1 42, 5.25 40.08 C6.41 38.16, 7.76 36.26, 9.28 34.41 C10.8 32.56, 12.51 30.75, 14.38 29 C16.25 27.25, 18.3 25.54, 20.5 23.91 C22.7 22.27, 25.07 20.69, 27.57 19.19 C30.07 17.69, 32.73 16.25, 35.51 14.9 C38.29 13.55, 41.22 12.26, 44.24 11.08 C47.27 9.89, 50.43 8.78, 53.67 7.77 C56.91 6.76, 60.26 5.84, 63.68 5.01 C67.09 4.19, 70.61 3.46, 74.17 2.84 C77.72 2.21, 81.36 1.69, 85.02 1.27 C88.68 0.85, 92.39 0.53, 96.11 0.32 C99.83 0.11, 103.59 0, 107.33 0 C111.07 0, 114.83 0.11, 118.55 0.32 C122.27 0.53, 125.99 0.85, 129.65 1.27 C133.31 1.69, 136.94 2.21, 140.5 2.84 C144.06 3.46, 147.57 4.19, 150.99 5.01 C154.41 5.84, 157.76 6.76, 161 7.77 C164.24 8.78, 167.4 9.89, 170.42 11.08 C173.45 12.26, 176.37 13.55, 179.15 14.9 C181.93 16.25, 184.6 17.69, 187.1 19.19 C189.6 20.69, 191.97 22.27, 194.17 23.91 C196.37 25.54, 198.42 27.25, 200.29 29 C202.16 30.75, 203.87 32.56, 205.39 34.41 C206.91 36.26, 208.26 38.16, 209.41 40.08 C210.57 42, 211.54 43.96, 212.32 45.94 C213.1 47.92, 213.69 49.93, 214.08 51.94 C214.47 53.95, 214.57 56.99, 214.67 58 C214.76 59.01, 214.76 56.99, 214.67 58" stroke="#1e1e1e" stroke-width="2" fill="none"></path></g><g transform="translate(621.3676606003152 270.2893828514295) rotate(0 63.93066406249994 23)"><text x="63.9306640625" y="18.400390625" font-family="Helvetica, Segoe UI Emoji" font-size="20px" fill="#1e1e1e" text-anchor="middle" style="white-space: pre;" direction="ltr" dominant-baseline="alphabetic">Règles de </text><text x="63.9306640625" y="41.400390625" font-family="Helvetica, Segoe UI Emoji" font-size="20px" fill="#1e1e1e" text-anchor="middle" style="white-space: pre;" direction="ltr" dominant-baseline="alphabetic">confidentialité </text></g><g stroke-linecap="round" transform="translate(421.8610399034287 434.6349501836867) rotate(0 80.33334350585938 58)"><path d="M160.67 58 C160.67 60.16, 160.5 62.34, 160.16 64.49 C159.83 66.64, 159.32 68.8, 158.65 70.91 C157.99 73.02, 157.15 75.11, 156.16 77.16 C155.17 79.2, 154.01 81.21, 152.71 83.17 C151.41 85.12, 149.95 87.03, 148.35 88.86 C146.76 90.69, 145.01 92.47, 143.14 94.16 C141.27 95.85, 139.26 97.48, 137.14 99.01 C135.02 100.54, 132.76 102, 130.42 103.35 C128.08 104.7, 125.61 105.96, 123.07 107.11 C120.53 108.26, 117.89 109.32, 115.19 110.26 C112.49 111.2, 109.7 112.03, 106.87 112.75 C104.04 113.46, 101.13 114.06, 98.21 114.55 C95.29 115.03, 92.31 115.39, 89.33 115.64 C86.35 115.88, 83.33 116, 80.33 116 C77.34 116, 74.32 115.88, 71.34 115.64 C68.36 115.39, 65.38 115.03, 62.46 114.55 C59.53 114.06, 56.63 113.46, 53.8 112.75 C50.97 112.03, 48.18 111.2, 45.48 110.26 C42.78 109.32, 40.13 108.26, 37.59 107.11 C35.05 105.96, 32.59 104.7, 30.25 103.35 C27.9 102, 25.65 100.54, 23.53 99.01 C21.41 97.48, 19.4 95.85, 17.53 94.16 C15.66 92.47, 13.91 90.69, 12.31 88.86 C10.72 87.03, 9.26 85.12, 7.96 83.17 C6.65 81.21, 5.5 79.2, 4.51 77.16 C3.52 75.11, 2.68 73.02, 2.01 70.91 C1.35 68.8, 0.84 66.64, 0.51 64.49 C0.17 62.34, 0 60.16, 0 58 C0 55.84, 0.17 53.66, 0.51 51.51 C0.84 49.36, 1.35 47.2, 2.01 45.09 C2.68 42.98, 3.52 40.89, 4.51 38.84 C5.5 36.8, 6.65 34.79, 7.96 32.83 C9.26 30.88, 10.72 28.97, 12.31 27.14 C13.91 25.31, 15.66 23.53, 17.53 21.84 C19.4 20.15, 21.41 18.52, 23.53 16.99 C25.65 15.46, 27.9 14, 30.25 12.65 C32.59 11.3, 35.05 10.04, 37.59 8.89 C40.13 7.74, 42.78 6.68, 45.48 5.74 C48.18 4.8, 50.97 3.97, 53.8 3.25 C56.63 2.54, 59.53 1.94, 62.46 1.45 C65.38 0.97, 68.36 0.61, 71.34 0.36 C74.32 0.12, 77.34 0, 80.33 0 C83.33 0, 86.35 0.12, 89.33 0.36 C92.31 0.61, 95.29 0.97, 98.21 1.45 C101.13 1.94, 104.04 2.54, 106.87 3.25 C109.7 3.97, 112.49 4.8, 115.19 5.74 C117.89 6.68, 120.53 7.74, 123.07 8.89 C125.61 10.04, 128.08 11.3, 130.42 12.65 C132.76 14, 135.02 15.46, 137.14 16.99 C139.26 18.52, 141.27 20.15, 143.14 21.84 C145.01 23.53, 146.76 25.31, 148.35 27.14 C149.95 28.97, 151.41 30.88, 152.71 32.83 C154.01 34.79, 155.17 36.8, 156.16 38.84 C157.15 40.89, 157.99 42.98, 158.65 45.09 C159.32 47.2, 159.83 49.36, 160.16 51.51 C160.5 53.66, 160.58 56.92, 160.67 58 C160.75 59.08, 160.75 56.92, 160.67 58" stroke="none" stroke-width="0" fill="#a5d8ff"></path><path d="M160.67 58 C160.67 60.16, 160.5 62.34, 160.16 64.49 C159.83 66.64, 159.32 68.8, 158.65 70.91 C157.99 73.02, 157.15 75.11, 156.16 77.16 C155.17 79.2, 154.01 81.21, 152.71 83.17 C151.41 85.12, 149.95 87.03, 148.35 88.86 C146.76 90.69, 145.01 92.47, 143.14 94.16 C141.27 95.85, 139.26 97.48, 137.14 99.01 C135.02 100.54, 132.76 102, 130.42 103.35 C128.08 104.7, 125.61 105.96, 123.07 107.11 C120.53 108.26, 117.89 109.32, 115.19 110.26 C112.49 111.2, 109.7 112.03, 106.87 112.75 C104.04 113.46, 101.13 114.06, 98.21 114.55 C95.29 115.03, 92.31 115.39, 89.33 115.64 C86.35 115.88, 83.33 116, 80.33 116 C77.34 116, 74.32 115.88, 71.34 115.64 C68.36 115.39, 65.38 115.03, 62.46 114.55 C59.53 114.06, 56.63 113.46, 53.8 112.75 C50.97 112.03, 48.18 111.2, 45.48 110.26 C42.78 109.32, 40.13 108.26, 37.59 107.11 C35.05 105.96, 32.59 104.7, 30.25 103.35 C27.9 102, 25.65 100.54, 23.53 99.01 C21.41 97.48, 19.4 95.85, 17.53 94.16 C15.66 92.47, 13.91 90.69, 12.31 88.86 C10.72 87.03, 9.26 85.12, 7.96 83.17 C6.65 81.21, 5.5 79.2, 4.51 77.16 C3.52 75.11, 2.68 73.02, 2.01 70.91 C1.35 68.8, 0.84 66.64, 0.51 64.49 C0.17 62.34, 0 60.16, 0 58 C0 55.84, 0.17 53.66, 0.51 51.51 C0.84 49.36, 1.35 47.2, 2.01 45.09 C2.68 42.98, 3.52 40.89, 4.51 38.84 C5.5 36.8, 6.65 34.79, 7.96 32.83 C9.26 30.88, 10.72 28.97, 12.31 27.14 C13.91 25.31, 15.66 23.53, 17.53 21.84 C19.4 20.15, 21.41 18.52, 23.53 16.99 C25.65 15.46, 27.9 14, 30.25 12.65 C32.59 11.3, 35.05 10.04, 37.59 8.89 C40.13 7.74, 42.78 6.68, 45.48 5.74 C48.18 4.8, 50.97 3.97, 53.8 3.25 C56.63 2.54, 59.53 1.94, 62.46 1.45 C65.38 0.97, 68.36 0.61, 71.34 0.36 C74.32 0.12, 77.34 0, 80.33 0 C83.33 0, 86.35 0.12, 89.33 0.36 C92.31 0.61, 95.29 0.97, 98.21 1.45 C101.13 1.94, 104.04 2.54, 106.87 3.25 C109.7 3.97, 112.49 4.8, 115.19 5.74 C117.89 6.68, 120.53 7.74, 123.07 8.89 C125.61 10.04, 128.08 11.3, 130.42 12.65 C132.76 14, 135.02 15.46, 137.14 16.99 C139.26 18.52, 141.27 20.15, 143.14 21.84 C145.01 23.53, 146.76 25.31, 148.35 27.14 C149.95 28.97, 151.41 30.88, 152.71 32.83 C154.01 34.79, 155.17 36.8, 156.16 38.84 C157.15 40.89, 157.99 42.98, 158.65 45.09 C159.32 47.2, 159.83 49.36, 160.16 51.51 C160.5 53.66, 160.58 56.92, 160.67 58 C160.75 59.08, 160.75 56.92, 160.67 58" stroke="#1e1e1e" stroke-width="2" fill="none"></path></g><g transform="translate(455.3295845859067 469.622756874867) rotate(0 47.060546875 23)"><text x="47.060546875" y="18.400390625" font-family="Helvetica, Segoe UI Emoji" font-size="20px" fill="#1e1e1e" text-anchor="middle" style="white-space: pre;" direction="ltr" dominant-baseline="alphabetic">Afficher le </text><text x="47.060546875" y="41.400390625" font-family="Helvetica, Segoe UI Emoji" font-size="20px" fill="#1e1e1e" text-anchor="middle" style="white-space: pre;" direction="ltr" dominant-baseline="alphabetic">planning</text></g><g stroke-linecap="round" transform="translate(170.36114671495216 413.13488151913594) rotate(0 98 60)"><path d="M196 60 C196 62.09, 195.82 64.19, 195.46 66.27 C195.11 68.35, 194.57 70.43, 193.86 72.47 C193.15 74.52, 192.26 76.55, 191.2 78.54 C190.15 80.53, 188.92 82.49, 187.53 84.4 C186.14 86.31, 184.58 88.19, 182.87 90 C181.16 91.81, 179.29 93.58, 177.28 95.27 C175.28 96.96, 173.11 98.59, 170.83 100.15 C168.54 101.7, 166.11 103.19, 163.57 104.59 C161.04 105.99, 158.37 107.31, 155.6 108.54 C152.84 109.77, 149.96 110.92, 147 111.96 C144.04 113.01, 140.98 113.96, 137.86 114.81 C134.74 115.66, 131.53 116.42, 128.28 117.06 C125.04 117.71, 121.72 118.25, 118.38 118.69 C115.04 119.12, 111.64 119.45, 108.24 119.67 C104.85 119.89, 101.41 120, 98 120 C94.59 120, 91.15 119.89, 87.76 119.67 C84.36 119.45, 80.96 119.12, 77.62 118.69 C74.28 118.25, 70.96 117.71, 67.72 117.06 C64.47 116.42, 61.26 115.66, 58.14 114.81 C55.02 113.96, 51.96 113.01, 49 111.96 C46.04 110.92, 43.16 109.77, 40.4 108.54 C37.63 107.31, 34.96 105.99, 32.43 104.59 C29.89 103.19, 27.46 101.7, 25.17 100.15 C22.89 98.59, 20.72 96.96, 18.72 95.27 C16.71 93.58, 14.84 91.81, 13.13 90 C11.42 88.19, 9.86 86.31, 8.47 84.4 C7.08 82.49, 5.85 80.53, 4.8 78.54 C3.74 76.55, 2.85 74.52, 2.14 72.47 C1.43 70.43, 0.89 68.35, 0.54 66.27 C0.18 64.19, 0 62.09, 0 60 C0 57.91, 0.18 55.81, 0.54 53.73 C0.89 51.65, 1.43 49.57, 2.14 47.53 C2.85 45.48, 3.74 43.45, 4.8 41.46 C5.85 39.47, 7.08 37.51, 8.47 35.6 C9.86 33.69, 11.42 31.81, 13.13 30 C14.84 28.19, 16.71 26.42, 18.72 24.73 C20.72 23.04, 22.89 21.41, 25.17 19.85 C27.46 18.3, 29.89 16.81, 32.43 15.41 C34.96 14.01, 37.63 12.69, 40.4 11.46 C43.16 10.23, 46.04 9.08, 49 8.04 C51.96 6.99, 55.02 6.04, 58.14 5.19 C61.26 4.34, 64.47 3.58, 67.72 2.94 C70.96 2.29, 74.28 1.75, 77.62 1.31 C80.96 0.88, 84.36 0.55, 87.76 0.33 C91.15 0.11, 94.59 0, 98 0 C101.41 0, 104.85 0.11, 108.24 0.33 C111.64 0.55, 115.04 0.88, 118.38 1.31 C121.72 1.75, 125.04 2.29, 128.28 2.94 C131.53 3.58, 134.74 4.34, 137.86 5.19 C140.98 6.04, 144.04 6.99, 147 8.04 C149.96 9.08, 152.84 10.23, 155.6 11.46 C158.37 12.69, 161.04 14.01, 163.57 15.41 C166.11 16.81, 168.54 18.3, 170.83 19.85 C173.11 21.41, 175.28 23.04, 177.28 24.73 C179.29 26.42, 181.16 28.19, 182.87 30 C184.58 31.81, 186.14 33.69, 187.53 35.6 C188.92 37.51, 190.15 39.47, 191.2 41.46 C192.26 43.45, 193.15 45.48, 193.86 47.53 C194.57 49.57, 195.11 51.65, 195.46 53.73 C195.82 55.81, 195.91 58.95, 196 60 C196.09 61.05, 196.09 58.95, 196 60" stroke="none" stroke-width="0" fill="#a5d8ff"></path><path d="M196 60 C196 62.09, 195.82 64.19, 195.46 66.27 C195.11 68.35, 194.57 70.43, 193.86 72.47 C193.15 74.52, 192.26 76.55, 191.2 78.54 C190.15 80.53, 188.92 82.49, 187.53 84.4 C186.14 86.31, 184.58 88.19, 182.87 90 C181.16 91.81, 179.29 93.58, 177.28 95.27 C175.28 96.96, 173.11 98.59, 170.83 100.15 C168.54 101.7, 166.11 103.19, 163.57 104.59 C161.04 105.99, 158.37 107.31, 155.6 108.54 C152.84 109.77, 149.96 110.92, 147 111.96 C144.04 113.01, 140.98 113.96, 137.86 114.81 C134.74 115.66, 131.53 116.42, 128.28 117.06 C125.04 117.71, 121.72 118.25, 118.38 118.69 C115.04 119.12, 111.64 119.45, 108.24 119.67 C104.85 119.89, 101.41 120, 98 120 C94.59 120, 91.15 119.89, 87.76 119.67 C84.36 119.45, 80.96 119.12, 77.62 118.69 C74.28 118.25, 70.96 117.71, 67.72 117.06 C64.47 116.42, 61.26 115.66, 58.14 114.81 C55.02 113.96, 51.96 113.01, 49 111.96 C46.04 110.92, 43.16 109.77, 40.4 108.54 C37.63 107.31, 34.96 105.99, 32.43 104.59 C29.89 103.19, 27.46 101.7, 25.17 100.15 C22.89 98.59, 20.72 96.96, 18.72 95.27 C16.71 93.58, 14.84 91.81, 13.13 90 C11.42 88.19, 9.86 86.31, 8.47 84.4 C7.08 82.49, 5.85 80.53, 4.8 78.54 C3.74 76.55, 2.85 74.52, 2.14 72.47 C1.43 70.43, 0.89 68.35, 0.54 66.27 C0.18 64.19, 0 62.09, 0 60 C0 57.91, 0.18 55.81, 0.54 53.73 C0.89 51.65, 1.43 49.57, 2.14 47.53 C2.85 45.48, 3.74 43.45, 4.8 41.46 C5.85 39.47, 7.08 37.51, 8.47 35.6 C9.86 33.69, 11.42 31.81, 13.13 30 C14.84 28.19, 16.71 26.42, 18.72 24.73 C20.72 23.04, 22.89 21.41, 25.17 19.85 C27.46 18.3, 29.89 16.81, 32.43 15.41 C34.96 14.01, 37.63 12.69, 40.4 11.46 C43.16 10.23, 46.04 9.08, 49 8.04 C51.96 6.99, 55.02 6.04, 58.14 5.19 C61.26 4.34, 64.47 3.58, 67.72 2.94 C70.96 2.29, 74.28 1.75, 77.62 1.31 C80.96 0.88, 84.36 0.55, 87.76 0.33 C91.15 0.11, 94.59 0, 98 0 C101.41 0, 104.85 0.11, 108.24 0.33 C111.64 0.55, 115.04 0.88, 118.38 1.31 C121.72 1.75, 125.04 2.29, 128.28 2.94 C131.53 3.58, 134.74 4.34, 137.86 5.19 C140.98 6.04, 144.04 6.99, 147 8.04 C149.96 9.08, 152.84 10.23, 155.6 11.46 C158.37 12.69, 161.04 14.01, 163.57 15.41 C166.11 16.81, 168.54 18.3, 170.83 19.85 C173.11 21.41, 175.28 23.04, 177.28 24.73 C179.29 26.42, 181.16 28.19, 182.87 30 C184.58 31.81, 186.14 33.69, 187.53 35.6 C188.92 37.51, 190.15 39.47, 191.2 41.46 C192.26 43.45, 193.15 45.48, 193.86 47.53 C194.57 49.57, 195.11 51.65, 195.46 53.73 C195.82 55.81, 195.91 58.95, 196 60 C196.09 61.05, 196.09 58.95, 196 60" stroke="#1e1e1e" stroke-width="2" fill="none"></path></g><g transform="translate(214.0969087211705 438.7084746479431) rotate(0 54.4677734375 34.5)"><text x="54.4677734375" y="18.400390625" font-family="Helvetica, Segoe UI Emoji" font-size="20px" fill="#1e1e1e" text-anchor="middle" style="white-space: pre;" direction="ltr" dominant-baseline="alphabetic">Rechercher </text><text x="54.4677734375" y="41.400390625" font-family="Helvetica, Segoe UI Emoji" font-size="20px" fill="#1e1e1e" text-anchor="middle" style="white-space: pre;" direction="ltr" dominant-baseline="alphabetic">avec des </text><text x="54.4677734375" y="64.400390625" font-family="Helvetica, Segoe UI Emoji" font-size="20px" fill="#1e1e1e" text-anchor="middle" style="white-space: pre;" direction="ltr" dominant-baseline="alphabetic">filtres</text></g><g stroke-linecap="round" transform="translate(563.499993460519 361.65872010730567) rotate(0 107.33334350585932 42.5)"><path d="M214.67 42.5 C214.67 43.98, 214.47 45.47, 214.08 46.94 C213.69 48.42, 213.1 49.89, 212.32 51.34 C211.54 52.78, 210.57 54.22, 209.41 55.63 C208.26 57.04, 206.91 58.43, 205.39 59.79 C203.87 61.14, 202.16 62.47, 200.29 63.75 C198.42 65.03, 196.37 66.28, 194.17 67.48 C191.97 68.68, 189.6 69.84, 187.1 70.94 C184.6 72.04, 181.93 73.09, 179.15 74.08 C176.37 75.07, 173.45 76.01, 170.42 76.88 C167.4 77.75, 164.24 78.57, 161 79.31 C157.76 80.05, 154.41 80.72, 150.99 81.33 C147.57 81.93, 144.06 82.46, 140.5 82.92 C136.94 83.38, 133.31 83.76, 129.65 84.07 C125.99 84.38, 122.27 84.61, 118.55 84.77 C114.83 84.92, 111.07 85, 107.33 85 C103.59 85, 99.83 84.92, 96.11 84.77 C92.39 84.61, 88.68 84.38, 85.02 84.07 C81.36 83.76, 77.72 83.38, 74.17 82.92 C70.61 82.46, 67.09 81.93, 63.68 81.33 C60.26 80.72, 56.91 80.05, 53.67 79.31 C50.43 78.57, 47.27 77.75, 44.24 76.88 C41.22 76.01, 38.29 75.07, 35.51 74.08 C32.73 73.09, 30.07 72.04, 27.57 70.94 C25.07 69.84, 22.7 68.68, 20.5 67.48 C18.3 66.28, 16.25 65.03, 14.38 63.75 C12.51 62.47, 10.8 61.14, 9.28 59.79 C7.76 58.43, 6.41 57.04, 5.25 55.63 C4.1 54.22, 3.12 52.78, 2.35 51.34 C1.57 49.89, 0.98 48.42, 0.59 46.94 C0.2 45.47, 0 43.98, 0 42.5 C0 41.02, 0.2 39.53, 0.59 38.06 C0.98 36.58, 1.57 35.11, 2.35 33.66 C3.12 32.22, 4.1 30.78, 5.25 29.37 C6.41 27.96, 7.76 26.57, 9.28 25.21 C10.8 23.86, 12.51 22.53, 14.38 21.25 C16.25 19.97, 18.3 18.72, 20.5 17.52 C22.7 16.32, 25.07 15.16, 27.57 14.06 C30.07 12.96, 32.73 11.91, 35.51 10.92 C38.29 9.93, 41.22 8.99, 44.24 8.12 C47.27 7.25, 50.43 6.43, 53.67 5.69 C56.91 4.95, 60.26 4.28, 63.68 3.67 C67.09 3.07, 70.61 2.54, 74.17 2.08 C77.72 1.62, 81.36 1.24, 85.02 0.93 C88.68 0.62, 92.39 0.39, 96.11 0.23 C99.83 0.08, 103.59 0, 107.33 0 C111.07 0, 114.83 0.08, 118.55 0.23 C122.27 0.39, 125.99 0.62, 129.65 0.93 C133.31 1.24, 136.94 1.62, 140.5 2.08 C144.06 2.54, 147.57 3.07, 150.99 3.67 C154.41 4.28, 157.76 4.95, 161 5.69 C164.24 6.43, 167.4 7.25, 170.42 8.12 C173.45 8.99, 176.37 9.93, 179.15 10.92 C181.93 11.91, 184.6 12.96, 187.1 14.06 C189.6 15.16, 191.97 16.32, 194.17 17.52 C196.37 18.72, 198.42 19.97, 200.29 21.25 C202.16 22.53, 203.87 23.86, 205.39 25.21 C206.91 26.57, 208.26 27.96, 209.41 29.37 C210.57 30.78, 211.54 32.22, 212.32 33.66 C213.1 35.11, 213.69 36.58, 214.08 38.06 C214.47 39.53, 214.57 41.76, 214.67 42.5 C214.76 43.24, 214.76 41.76, 214.67 42.5" stroke="none" stroke-width="0" fill="#a5d8ff"></path><path d="M214.67 42.5 C214.67 43.98, 214.47 45.47, 214.08 46.94 C213.69 48.42, 213.1 49.89, 212.32 51.34 C211.54 52.78, 210.57 54.22, 209.41 55.63 C208.26 57.04, 206.91 58.43, 205.39 59.79 C203.87 61.14, 202.16 62.47, 200.29 63.75 C198.42 65.03, 196.37 66.28, 194.17 67.48 C191.97 68.68, 189.6 69.84, 187.1 70.94 C184.6 72.04, 181.93 73.09, 179.15 74.08 C176.37 75.07, 173.45 76.01, 170.42 76.88 C167.4 77.75, 164.24 78.57, 161 79.31 C157.76 80.05, 154.41 80.72, 150.99 81.33 C147.57 81.93, 144.06 82.46, 140.5 82.92 C136.94 83.38, 133.31 83.76, 129.65 84.07 C125.99 84.38, 122.27 84.61, 118.55 84.77 C114.83 84.92, 111.07 85, 107.33 85 C103.59 85, 99.83 84.92, 96.11 84.77 C92.39 84.61, 88.68 84.38, 85.02 84.07 C81.36 83.76, 77.72 83.38, 74.17 82.92 C70.61 82.46, 67.09 81.93, 63.68 81.33 C60.26 80.72, 56.91 80.05, 53.67 79.31 C50.43 78.57, 47.27 77.75, 44.24 76.88 C41.22 76.01, 38.29 75.07, 35.51 74.08 C32.73 73.09, 30.07 72.04, 27.57 70.94 C25.07 69.84, 22.7 68.68, 20.5 67.48 C18.3 66.28, 16.25 65.03, 14.38 63.75 C12.51 62.47, 10.8 61.14, 9.28 59.79 C7.76 58.43, 6.41 57.04, 5.25 55.63 C4.1 54.22, 3.12 52.78, 2.35 51.34 C1.57 49.89, 0.98 48.42, 0.59 46.94 C0.2 45.47, 0 43.98, 0 42.5 C0 41.02, 0.2 39.53, 0.59 38.06 C0.98 36.58, 1.57 35.11, 2.35 33.66 C3.12 32.22, 4.1 30.78, 5.25 29.37 C6.41 27.96, 7.76 26.57, 9.28 25.21 C10.8 23.86, 12.51 22.53, 14.38 21.25 C16.25 19.97, 18.3 18.72, 20.5 17.52 C22.7 16.32, 25.07 15.16, 27.57 14.06 C30.07 12.96, 32.73 11.91, 35.51 10.92 C38.29 9.93, 41.22 8.99, 44.24 8.12 C47.27 7.25, 50.43 6.43, 53.67 5.69 C56.91 4.95, 60.26 4.28, 63.68 3.67 C67.09 3.07, 70.61 2.54, 74.17 2.08 C77.72 1.62, 81.36 1.24, 85.02 0.93 C88.68 0.62, 92.39 0.39, 96.11 0.23 C99.83 0.08, 103.59 0, 107.33 0 C111.07 0, 114.83 0.08, 118.55 0.23 C122.27 0.39, 125.99 0.62, 129.65 0.93 C133.31 1.24, 136.94 1.62, 140.5 2.08 C144.06 2.54, 147.57 3.07, 150.99 3.67 C154.41 4.28, 157.76 4.95, 161 5.69 C164.24 6.43, 167.4 7.25, 170.42 8.12 C173.45 8.99, 176.37 9.93, 179.15 10.92 C181.93 11.91, 184.6 12.96, 187.1 14.06 C189.6 15.16, 191.97 16.32, 194.17 17.52 C196.37 18.72, 198.42 19.97, 200.29 21.25 C202.16 22.53, 203.87 23.86, 205.39 25.21 C206.91 26.57, 208.26 27.96, 209.41 29.37 C210.57 30.78, 211.54 32.22, 212.32 33.66 C213.1 35.11, 213.69 36.58, 214.08 38.06 C214.47 39.53, 214.57 41.76, 214.67 42.5 C214.76 43.24, 214.76 41.76, 214.67 42.5" stroke="#1e1e1e" stroke-width="2" fill="none"></path></g><g transform="translate(607.5827097384602 381.1066819068774) rotate(0 63.3544921875 23)"><text x="63.3544921875" y="18.400390625" font-family="Helvetica, Segoe UI Emoji" font-size="20px" fill="#1e1e1e" text-anchor="middle" style="white-space: pre;" direction="ltr" dominant-baseline="alphabetic">Paramétrer la </text><text x="63.3544921875" y="41.400390625" font-family="Helvetica, Segoe UI Emoji" font-size="20px" fill="#1e1e1e" text-anchor="middle" style="white-space: pre;" direction="ltr" dominant-baseline="alphabetic">langue </text></g><g stroke-linecap="round" transform="translate(10 332.13488151913594) rotate(0 90.00001907348633 43.91667938232422)"><path d="M180 43.92 C180 45.56, 179.81 47.21, 179.43 48.83 C179.06 50.46, 178.49 52.09, 177.74 53.69 C177 55.29, 176.06 56.87, 174.95 58.42 C173.84 59.97, 172.54 61.49, 171.09 62.97 C169.63 64.45, 167.99 65.89, 166.21 67.28 C164.42 68.67, 162.46 70.02, 160.36 71.3 C158.27 72.58, 156.01 73.81, 153.64 74.97 C151.26 76.13, 148.74 77.23, 146.11 78.25 C143.49 79.27, 140.73 80.23, 137.88 81.1 C135.04 81.97, 132.08 82.77, 129.05 83.48 C126.02 84.2, 122.9 84.83, 119.73 85.37 C116.55 85.91, 113.3 86.37, 110.03 86.73 C106.75 87.1, 103.41 87.37, 100.08 87.56 C96.74 87.74, 93.36 87.83, 90 87.83 C86.64 87.83, 83.26 87.74, 79.92 87.56 C76.59 87.37, 73.25 87.1, 69.97 86.73 C66.7 86.37, 63.45 85.91, 60.27 85.37 C57.1 84.83, 53.98 84.2, 50.95 83.48 C47.92 82.77, 44.96 81.97, 42.12 81.1 C39.27 80.23, 36.51 79.27, 33.89 78.25 C31.26 77.23, 28.74 76.13, 26.36 74.97 C23.99 73.81, 21.73 72.58, 19.64 71.3 C17.54 70.02, 15.58 68.67, 13.79 67.28 C12.01 65.89, 10.37 64.45, 8.91 62.97 C7.46 61.49, 6.16 59.97, 5.05 58.42 C3.94 56.87, 3 55.29, 2.26 53.69 C1.51 52.09, 0.94 50.46, 0.57 48.83 C0.19 47.21, 0 45.56, 0 43.92 C0 42.28, 0.19 40.63, 0.57 39 C0.94 37.37, 1.51 35.74, 2.26 34.14 C3 32.55, 3.94 30.96, 5.05 29.41 C6.16 27.86, 7.46 26.34, 8.91 24.86 C10.37 23.39, 12.01 21.94, 13.79 20.55 C15.58 19.16, 17.54 17.82, 19.64 16.54 C21.73 15.25, 23.99 14.02, 26.36 12.86 C28.74 11.7, 31.26 10.6, 33.89 9.58 C36.51 8.56, 39.27 7.6, 42.12 6.73 C44.96 5.86, 47.92 5.06, 50.95 4.35 C53.98 3.64, 57.1 3.01, 60.27 2.46 C63.45 1.92, 66.7 1.47, 69.97 1.1 C73.25 0.74, 76.59 0.46, 79.92 0.28 C83.26 0.09, 86.64 0, 90 0 C93.36 0, 96.74 0.09, 100.08 0.28 C103.41 0.46, 106.75 0.74, 110.03 1.1 C113.3 1.47, 116.55 1.92, 119.73 2.46 C122.9 3.01, 126.02 3.64, 129.05 4.35 C132.08 5.06, 135.04 5.86, 137.88 6.73 C140.73 7.6, 143.49 8.56, 146.11 9.58 C148.74 10.6, 151.26 11.7, 153.64 12.86 C156.01 14.02, 158.27 15.25, 160.36 16.54 C162.46 17.82, 164.42 19.16, 166.21 20.55 C167.99 21.94, 169.63 23.39, 171.09 24.86 C172.54 26.34, 173.84 27.86, 174.95 29.41 C176.06 30.96, 177 32.55, 177.74 34.14 C178.49 35.74, 179.06 37.37, 179.43 39 C179.81 40.63, 179.91 43.1, 180 43.92 C180.09 44.74, 180.09 43.1, 180 43.92" stroke="none" stroke-width="0" fill="#a5d8ff"></path><path d="M180 43.92 C180 45.56, 179.81 47.21, 179.43 48.83 C179.06 50.46, 178.49 52.09, 177.74 53.69 C177 55.29, 176.06 56.87, 174.95 58.42 C173.84 59.97, 172.54 61.49, 171.09 62.97 C169.63 64.45, 167.99 65.89, 166.21 67.28 C164.42 68.67, 162.46 70.02, 160.36 71.3 C158.27 72.58, 156.01 73.81, 153.64 74.97 C151.26 76.13, 148.74 77.23, 146.11 78.25 C143.49 79.27, 140.73 80.23, 137.88 81.1 C135.04 81.97, 132.08 82.77, 129.05 83.48 C126.02 84.2, 122.9 84.83, 119.73 85.37 C116.55 85.91, 113.3 86.37, 110.03 86.73 C106.75 87.1, 103.41 87.37, 100.08 87.56 C96.74 87.74, 93.36 87.83, 90 87.83 C86.64 87.83, 83.26 87.74, 79.92 87.56 C76.59 87.37, 73.25 87.1, 69.97 86.73 C66.7 86.37, 63.45 85.91, 60.27 85.37 C57.1 84.83, 53.98 84.2, 50.95 83.48 C47.92 82.77, 44.96 81.97, 42.12 81.1 C39.27 80.23, 36.51 79.27, 33.89 78.25 C31.26 77.23, 28.74 76.13, 26.36 74.97 C23.99 73.81, 21.73 72.58, 19.64 71.3 C17.54 70.02, 15.58 68.67, 13.79 67.28 C12.01 65.89, 10.37 64.45, 8.91 62.97 C7.46 61.49, 6.16 59.97, 5.05 58.42 C3.94 56.87, 3 55.29, 2.26 53.69 C1.51 52.09, 0.94 50.46, 0.57 48.83 C0.19 47.21, 0 45.56, 0 43.92 C0 42.28, 0.19 40.63, 0.57 39 C0.94 37.37, 1.51 35.74, 2.26 34.14 C3 32.55, 3.94 30.96, 5.05 29.41 C6.16 27.86, 7.46 26.34, 8.91 24.86 C10.37 23.39, 12.01 21.94, 13.79 20.55 C15.58 19.16, 17.54 17.82, 19.64 16.54 C21.73 15.25, 23.99 14.02, 26.36 12.86 C28.74 11.7, 31.26 10.6, 33.89 9.58 C36.51 8.56, 39.27 7.6, 42.12 6.73 C44.96 5.86, 47.92 5.06, 50.95 4.35 C53.98 3.64, 57.1 3.01, 60.27 2.46 C63.45 1.92, 66.7 1.47, 69.97 1.1 C73.25 0.74, 76.59 0.46, 79.92 0.28 C83.26 0.09, 86.64 0, 90 0 C93.36 0, 96.74 0.09, 100.08 0.28 C103.41 0.46, 106.75 0.74, 110.03 1.1 C113.3 1.47, 116.55 1.92, 119.73 2.46 C122.9 3.01, 126.02 3.64, 129.05 4.35 C132.08 5.06, 135.04 5.86, 137.88 6.73 C140.73 7.6, 143.49 8.56, 146.11 9.58 C148.74 10.6, 151.26 11.7, 153.64 12.86 C156.01 14.02, 158.27 15.25, 160.36 16.54 C162.46 17.82, 164.42 19.16, 166.21 20.55 C167.99 21.94, 169.63 23.39, 171.09 24.86 C172.54 26.34, 173.84 27.86, 174.95 29.41 C176.06 30.96, 177 32.55, 177.74 34.14 C178.49 35.74, 179.06 37.37, 179.43 39 C179.81 40.63, 179.91 43.1, 180 43.92 C180.09 44.74, 180.09 43.1, 180 43.92" stroke="#1e1e1e" stroke-width="2" fill="none"></path></g><g transform="translate(62.06742652970553 352.9977791030233) rotate(0 37.79296875 23)"><text x="37.79296875" y="18.400390625" font-family="Helvetica, Segoe UI Emoji" font-size="20px" fill="#1e1e1e" text-anchor="middle" style="white-space: pre;" direction="ltr" dominant-baseline="alphabetic">Ajouter </text><text x="37.79296875" y="41.400390625" font-family="Helvetica, Segoe UI Emoji" font-size="20px" fill="#1e1e1e" text-anchor="middle" style="white-space: pre;" direction="ltr" dominant-baseline="alphabetic">résultats</text></g><g stroke-linecap="round"><g transform="translate(265.2778116861979 122.96820213681173) rotate(0 80.41667938232422 52.5)"><path d="M0 0 C12.5 18.19, 48.19 109.86, 75 109.17 C101.81 108.47, 146.53 14.72, 160.83 -4.17 M0 0 C12.5 18.19, 48.19 109.86, 75 109.17 C101.81 108.47, 146.53 14.72, 160.83 -4.17" stroke="#fa5252" stroke-width="2" fill="none"></path></g></g><mask></mask><g stroke-linecap="round"><g transform="translate(154.16671752929676 193.80159904843282) rotate(0 49.999961853027344 32.91666030883789)"><path d="M0 0 C20.42 10.97, 126.25 56.39, 122.5 65.83 C118.75 75.28, 1.67 58.19, -22.5 56.67 M0 0 C20.42 10.97, 126.25 56.39, 122.5 65.83 C118.75 75.28, 1.67 58.19, -22.5 56.67" stroke="#fa5252" stroke-width="2" fill="none"></path></g></g><mask></mask><g stroke-linecap="round"><g transform="translate(144.16671752929676 337.1349196661086) rotate(0 58.33332061767578 -29.16667938232422)"><path d="M0 0 C21.67 -7.64, 132.22 -36.11, 130 -45.83 C127.78 -55.56, 10.56 -56.25, -13.33 -58.33 M0 0 C21.67 -7.64, 132.22 -36.11, 130 -45.83 C127.78 -55.56, 10.56 -56.25, -13.33 -58.33" stroke="#fa5252" stroke-width="2" fill="none"></path></g></g><mask></mask><g stroke-linecap="round"><g transform="translate(561.6667175292968 174.6349196661086) rotate(0 -62.5 31.25)"><path d="M0 0 C-20.83 10.42, -104.17 52.08, -125 62.5 M0 0 C-20.83 10.42, -104.17 52.08, -125 62.5" stroke="#1971c2" stroke-width="2" fill="none"></path></g></g><mask></mask><g stroke-linecap="round"><g transform="translate(577.4999999999999 277.1349196661086) rotate(0 -50.83332061767578 -1.25)"><path d="M0 0 C-16.94 -0.42, -84.72 -2.08, -101.67 -2.5 M0 0 C-16.94 -0.42, -84.72 -2.08, -101.67 -2.5" stroke="#1971c2" stroke-width="2" fill="none"></path></g></g><mask></mask><g stroke-linecap="round"><g transform="translate(287.4999999999999 412.9682402837844) rotate(0 15.833358764648438 -42.08332061767578)"><path d="M0 0 C5.28 -14.03, 26.39 -70.14, 31.67 -84.17 M0 0 C5.28 -14.03, 26.39 -70.14, 31.67 -84.17" stroke="#1971c2" stroke-width="2" fill="none"></path></g></g><mask></mask><g stroke-linecap="round"><g transform="translate(466.66671752929676 437.9682402837844) rotate(0 -25 -55.41666030883789)"><path d="M0 0 C-8.33 -18.47, -41.67 -92.36, -50 -110.83 M0 0 C-8.33 -18.47, -41.67 -92.36, -50 -110.83" stroke="#1971c2" stroke-width="2" fill="none"></path></g></g><mask></mask><g stroke-linecap="round"><g transform="translate(579.1667175292968 382.1349196661086) rotate(0 -56.66667938232422 -40.41666030883789)"><path d="M0 0 C-18.89 -13.47, -94.44 -67.36, -113.33 -80.83 M0 0 C-18.89 -13.47, -94.44 -67.36, -113.33 -80.83" stroke="#1971c2" stroke-width="2" fill="none"></path></g></g><mask></mask><g transform="translate(500.70001220703114 205.46824028378438) rotate(0 18.8916015625 11.5)"><text x="0" y="18.400390625" font-family="Helvetica, Segoe UI Emoji" font-size="20px" fill="#1971c2" text-anchor="start" style="white-space: pre;" direction="ltr" dominant-baseline="alphabetic">FC1</text></g><g transform="translate(528.2000122070311 280.4682402837844) rotate(0 18.8916015625 11.5)"><text x="0" y="18.400390625" font-family="Helvetica, Segoe UI Emoji" font-size="20px" fill="#1971c2" text-anchor="start" style="white-space: pre;" direction="ltr" dominant-baseline="alphabetic">FC2</text></g><g transform="translate(496.95001220703114 365.4682402837844) rotate(0 18.8916015625 11.5)"><text x="0" y="18.400390625" font-family="Helvetica, Segoe UI Emoji" font-size="20px" fill="#1971c2" text-anchor="start" style="white-space: pre;" direction="ltr" dominant-baseline="alphabetic">FC3</text></g><g transform="translate(388.20001220703114 393.80156090146016) rotate(0 18.8916015625 11.5)"><text x="0" y="18.400390625" font-family="Helvetica, Segoe UI Emoji" font-size="20px" fill="#1971c2" text-anchor="start" style="white-space: pre;" direction="ltr" dominant-baseline="alphabetic">FC4</text></g><g transform="translate(258.20001220703114 362.9682402837844) rotate(0 18.8916015625 11.5)"><text x="0" y="18.400390625" font-family="Helvetica, Segoe UI Emoji" font-size="20px" fill="#1971c2" text-anchor="start" style="white-space: pre;" direction="ltr" dominant-baseline="alphabetic">FC5</text></g><g transform="translate(353.8266281854536 130.15878186907085) rotate(0 18.33984375 11.5)"><text x="0" y="18.400390625" font-family="Helvetica, Segoe UI Emoji" font-size="20px" fill="#e03131" text-anchor="start" style="white-space: pre;" direction="ltr" dominant-baseline="alphabetic">FP1</text></g><g transform="translate(167.553013392857 221.11109742664155) rotate(0 18.33984375 11.5)"><text x="0" y="18.400390625" font-family="Helvetica, Segoe UI Emoji" font-size="20px" fill="#e03131" text-anchor="start" style="white-space: pre;" direction="ltr" dominant-baseline="alphabetic">FP2</text></g><g transform="translate(161.83872767857144 295.3968117123558) rotate(0 18.33984375 11.5)"><text x="0" y="18.400390625" font-family="Helvetica, Segoe UI Emoji" font-size="20px" fill="#e03131" text-anchor="start" style="white-space: pre;" direction="ltr" dominant-baseline="alphabetic">FP3</text></g></svg>