<?xml version="1.0" encoding="utf-8"?>
<!-- Generated by Mocodo 4.2.3 -->
<svg width="1000" height="800" viewBox="0 0 1000 800" xmlns="http://www.w3.org/2000/svg">
<rect x="0" y="0" width="1000" height="800" fill="#f7f7f7" stroke="none" stroke-width="0"/>

<!-- Entity TYPEMEDAILLE -->
<g>
	<g>
		<rect x="342" y="466" width="116" height="25" fill="#c2a5cf" stroke="none" stroke-width="0" opacity="1"/>
		<rect x="342" y="491" width="116" height="43" fill="#e7d4e8" stroke="none" stroke-width="0" opacity="1"/>
		<rect x="342" y="466" width="116" height="68" fill="none" stroke="#9970ab" stroke-width="2" opacity="1"/>
		<line x1="342" y1="491" x2="458" y2="491" stroke="#9970ab" stroke-width="1"/>
	</g>
	<text x="361" y="483.75" fill="#000000" font-family="Verdana" font-size="12">TypeMédaille</text>
	<text x="347" y="508.8" fill="#000000" font-family="Verdana" font-size="12">idTypeMédaille</text>
	<line x1="347" y1="511" x2="437" y2="511" stroke="#000000" stroke-width="1"/>
	<text x="347" y="525.8" fill="#000000" font-family="Verdana" font-size="12">nomTypeMédaille</text>
</g>

<!-- Entity EQUIPE -->
<g>
	<g>
		<rect x="136" y="541" width="128" height="25" fill="#c2a5cf" stroke="none" stroke-width="0" opacity="1"/>
		<rect x="136" y="566" width="128" height="93" fill="#e7d4e8" stroke="none" stroke-width="0" opacity="1"/>
		<rect x="136" y="541" width="128" height="118" fill="none" stroke="#9970ab" stroke-width="2" opacity="1"/>
		<line x1="136" y1="566" x2="264" y2="566" stroke="#9970ab" stroke-width="1"/>
	</g>
	<text x="179" y="558.75" fill="#000000" font-family="Verdana" font-size="12">Équipe</text>
	<text x="141" y="583.8" fill="#000000" font-family="Verdana" font-size="12">idÉquipe</text>
	<line x1="141" y1="586" x2="193" y2="586" stroke="#000000" stroke-width="1"/>
	<text x="141" y="600.8" fill="#000000" font-family="Verdana" font-size="12">nomCourtÉquipe</text>
	<text x="141" y="617.8" fill="#000000" font-family="Verdana" font-size="12">nomCompletÉquipe</text>
	<text x="141" y="634.8" fill="#000000" font-family="Verdana" font-size="12">nomNatifÉquipe</text>
	<text x="141" y="651.8" fill="#000000" font-family="Verdana" font-size="12">codeÉquipe</text>
</g>

<!-- Entity SCORE -->
<g>
	<g>
		<rect x="761" y="666" width="78" height="25" fill="#c2a5cf" stroke="none" stroke-width="0" opacity="1"/>
		<rect x="761" y="691" width="78" height="43" fill="#e7d4e8" stroke="none" stroke-width="0" opacity="1"/>
		<rect x="761" y="666" width="78" height="68" fill="none" stroke="#9970ab" stroke-width="2" opacity="1"/>
		<line x1="761" y1="691" x2="839" y2="691" stroke="#9970ab" stroke-width="1"/>
	</g>
	<text x="783" y="683.75" fill="#000000" font-family="Verdana" font-size="12">Score</text>
	<text x="766" y="708.8" fill="#000000" font-family="Verdana" font-size="12">idScore</text>
	<line x1="766" y1="711" x2="812" y2="711" stroke="#000000" stroke-width="1"/>
	<text x="766" y="725.8" fill="#000000" font-family="Verdana" font-size="12">scoreScore</text>
</g>

<!-- Entity TEMPS -->
<g>
	<g>
		<rect x="756" y="566" width="88" height="25" fill="#c2a5cf" stroke="none" stroke-width="0" opacity="1"/>
		<rect x="756" y="591" width="88" height="43" fill="#e7d4e8" stroke="none" stroke-width="0" opacity="1"/>
		<rect x="756" y="566" width="88" height="68" fill="none" stroke="#9970ab" stroke-width="2" opacity="1"/>
		<line x1="756" y1="591" x2="844" y2="591" stroke="#9970ab" stroke-width="1"/>
	</g>
	<text x="780" y="583.75" fill="#000000" font-family="Verdana" font-size="12">Temps</text>
	<text x="761" y="608.8" fill="#000000" font-family="Verdana" font-size="12">idTemps</text>
	<line x1="761" y1="611" x2="813" y2="611" stroke="#000000" stroke-width="1"/>
	<text x="761" y="625.8" fill="#000000" font-family="Verdana" font-size="12">tempsTemps</text>
</g>

<!-- Entity DISCIPLINE -->
<g>
	<g>
		<rect x="352" y="258" width="96" height="25" fill="#c2a5cf" stroke="none" stroke-width="0" opacity="1"/>
		<rect x="352" y="283" width="96" height="59" fill="#e7d4e8" stroke="none" stroke-width="0" opacity="1"/>
		<rect x="352" y="258" width="96" height="84" fill="none" stroke="#9970ab" stroke-width="2" opacity="1"/>
		<line x1="352" y1="283" x2="448" y2="283" stroke="#9970ab" stroke-width="1"/>
	</g>
	<text x="371" y="275.75" fill="#000000" font-family="Verdana" font-size="12">Discipline</text>
	<text x="357" y="300.8" fill="#000000" font-family="Verdana" font-size="12">idDiscipline</text>
	<line x1="357" y1="303" x2="426" y2="303" stroke="#000000" stroke-width="1"/>
	<text x="357" y="317.8" fill="#000000" font-family="Verdana" font-size="12">nomDiscipline</text>
	<text x="357" y="334.8" fill="#000000" font-family="Verdana" font-size="12">codeDiscipline</text>
</g>

<!-- Entity TYPESESSION -->
<g>
	<g>
		<rect x="143" y="66" width="114" height="25" fill="#c2a5cf" stroke="none" stroke-width="0" opacity="1"/>
		<rect x="143" y="91" width="114" height="43" fill="#e7d4e8" stroke="none" stroke-width="0" opacity="1"/>
		<rect x="143" y="66" width="114" height="68" fill="none" stroke="#9970ab" stroke-width="2" opacity="1"/>
		<line x1="143" y1="91" x2="257" y2="91" stroke="#9970ab" stroke-width="1"/>
	</g>
	<text x="163" y="83.75" fill="#000000" font-family="Verdana" font-size="12">typeSession</text>
	<text x="148" y="108.8" fill="#000000" font-family="Verdana" font-size="12">idTypeSession</text>
	<line x1="148" y1="111" x2="235" y2="111" stroke="#000000" stroke-width="1"/>
	<text x="148" y="125.8" fill="#000000" font-family="Verdana" font-size="12">nomTypeSession</text>
</g>

<!-- Entity CATEGORIE -->
<g>
	<g>
		<rect x="752" y="66" width="96" height="25" fill="#c2a5cf" stroke="none" stroke-width="0" opacity="1"/>
		<rect x="752" y="91" width="96" height="43" fill="#e7d4e8" stroke="none" stroke-width="0" opacity="1"/>
		<rect x="752" y="66" width="96" height="68" fill="none" stroke="#9970ab" stroke-width="2" opacity="1"/>
		<line x1="752" y1="91" x2="848" y2="91" stroke="#9970ab" stroke-width="1"/>
	</g>
	<text x="771" y="83.75" fill="#000000" font-family="Verdana" font-size="12">Catégorie</text>
	<text x="757" y="108.8" fill="#000000" font-family="Verdana" font-size="12">idCatégorie</text>
	<line x1="757" y1="111" x2="827" y2="111" stroke="#000000" stroke-width="1"/>
	<text x="757" y="125.8" fill="#000000" font-family="Verdana" font-size="12">nomCatégorie</text>
</g>

<!-- Entity SESSION -->
<g>
	<g>
		<rect x="336" y="15" width="128" height="25" fill="#c2a5cf" stroke="none" stroke-width="0" opacity="1"/>
		<rect x="336" y="40" width="128" height="145" fill="#e7d4e8" stroke="none" stroke-width="0" opacity="1"/>
		<rect x="336" y="15" width="128" height="170" fill="none" stroke="#9970ab" stroke-width="2" opacity="1"/>
		<line x1="336" y1="40" x2="464" y2="40" stroke="#9970ab" stroke-width="1"/>
	</g>
	<text x="377" y="32.75" fill="#000000" font-family="Verdana" font-size="12">Session</text>
	<text x="341" y="57.8" fill="#000000" font-family="Verdana" font-size="12">codeSession</text>
	<line x1="341" y1="60" x2="416" y2="60" stroke="#000000" stroke-width="1"/>
	<text x="341" y="74.8" fill="#000000" font-family="Verdana" font-size="12">heureDébutSession</text>
	<text x="341" y="91.8" fill="#000000" font-family="Verdana" font-size="12">heureFinSession</text>
	<text x="341" y="108.8" fill="#000000" font-family="Verdana" font-size="12">#typeSession</text>
	<text x="341" y="125.8" fill="#000000" font-family="Verdana" font-size="12">descriptionSession</text>
	<text x="341" y="142.8" fill="#000000" font-family="Verdana" font-size="12">#prixSession</text>
	<text x="341" y="159.8" fill="#000000" font-family="Verdana" font-size="12">dateSession</text>
	<text x="341" y="176.8" fill="#000000" font-family="Verdana" font-size="12">#épreuveSession</text>
</g>

<!-- Entity PRIXSESSION -->
<g>
	<g>
		<rect x="527" y="58" width="146" height="25" fill="#c2a5cf" stroke="none" stroke-width="0" opacity="1"/>
		<rect x="527" y="83" width="146" height="59" fill="#e7d4e8" stroke="none" stroke-width="0" opacity="1"/>
		<rect x="527" y="58" width="146" height="84" fill="none" stroke="#9970ab" stroke-width="2" opacity="1"/>
		<line x1="527" y1="83" x2="673" y2="83" stroke="#9970ab" stroke-width="1"/>
	</g>
	<text x="565" y="75.75" fill="#000000" font-family="Verdana" font-size="12">PrixSession</text>
	<text x="532" y="100.8" fill="#000000" font-family="Verdana" font-size="12">idPrixSession</text>
	<line x1="532" y1="103" x2="613" y2="103" stroke="#000000" stroke-width="1"/>
	<text x="532" y="117.8" fill="#000000" font-family="Verdana" font-size="12">prixPrixSession</text>
	<text x="532" y="134.8" fill="#000000" font-family="Verdana" font-size="12">#catégoriePrixSession</text>
</g>

<!-- Entity TYPERESULTAT -->
<g>
	<g>
		<rect x="742" y="466" width="116" height="25" fill="#c2a5cf" stroke="none" stroke-width="0" opacity="1"/>
		<rect x="742" y="491" width="116" height="43" fill="#e7d4e8" stroke="none" stroke-width="0" opacity="1"/>
		<rect x="742" y="466" width="116" height="68" fill="none" stroke="#9970ab" stroke-width="2" opacity="1"/>
		<line x1="742" y1="491" x2="858" y2="491" stroke="#9970ab" stroke-width="1"/>
	</g>
	<text x="762" y="483.75" fill="#000000" font-family="Verdana" font-size="12">typeRésultat</text>
	<text x="747" y="508.8" fill="#000000" font-family="Verdana" font-size="12">idTypeRésultat</text>
	<line x1="747" y1="511" x2="837" y2="511" stroke="#000000" stroke-width="1"/>
	<text x="747" y="525.8" fill="#000000" font-family="Verdana" font-size="12">nomTypeRésultat</text>
</g>

<!-- Entity RESULTAT -->
<g>
	<g>
		<rect x="540" y="541" width="120" height="25" fill="#c2a5cf" stroke="none" stroke-width="0" opacity="1"/>
		<rect x="540" y="566" width="120" height="93" fill="#e7d4e8" stroke="none" stroke-width="0" opacity="1"/>
		<rect x="540" y="541" width="120" height="118" fill="none" stroke="#9970ab" stroke-width="2" opacity="1"/>
		<line x1="540" y1="566" x2="660" y2="566" stroke="#9970ab" stroke-width="1"/>
	</g>
	<text x="575" y="558.75" fill="#000000" font-family="Verdana" font-size="12">Résultat</text>
	<text x="545" y="583.8" fill="#000000" font-family="Verdana" font-size="12">idRésultat</text>
	<line x1="545" y1="586" x2="606" y2="586" stroke="#000000" stroke-width="1"/>
	<text x="545" y="600.8" fill="#000000" font-family="Verdana" font-size="12">#épreuveRésultat</text>
	<text x="545" y="617.8" fill="#000000" font-family="Verdana" font-size="12">#typeRésultat</text>
	<text x="545" y="634.8" fill="#000000" font-family="Verdana" font-size="12">#temps</text>
	<text x="545" y="651.8" fill="#000000" font-family="Verdana" font-size="12">#scoreRésultat</text>
</g>

<!-- Entity MEDAILLE -->
<g>
	<g>
		<rect x="345" y="549" width="110" height="25" fill="#c2a5cf" stroke="none" stroke-width="0" opacity="1"/>
		<rect x="345" y="574" width="110" height="77" fill="#e7d4e8" stroke="none" stroke-width="0" opacity="1"/>
		<rect x="345" y="549" width="110" height="102" fill="none" stroke="#9970ab" stroke-width="2" opacity="1"/>
		<line x1="345" y1="574" x2="455" y2="574" stroke="#9970ab" stroke-width="1"/>
	</g>
	<text x="375" y="566.75" fill="#000000" font-family="Verdana" font-size="12">Médaille</text>
	<text x="350" y="591.8" fill="#000000" font-family="Verdana" font-size="12">idMédaille</text>
	<line x1="350" y1="594" x2="411" y2="594" stroke="#000000" stroke-width="1"/>
	<text x="350" y="608.8" fill="#000000" font-family="Verdana" font-size="12">#équipeMédaille</text>
	<text x="350" y="625.8" fill="#000000" font-family="Verdana" font-size="12">#typeMédaille</text>
	<text x="350" y="642.8" fill="#000000" font-family="Verdana" font-size="12">#idRésultat</text>
</g>

<!-- Entity EPREUVE -->
<g>
	<g>
		<rect x="555" y="249" width="90" height="25" fill="#c2a5cf" stroke="none" stroke-width="0" opacity="1"/>
		<rect x="555" y="274" width="90" height="77" fill="#e7d4e8" stroke="none" stroke-width="0" opacity="1"/>
		<rect x="555" y="249" width="90" height="102" fill="none" stroke="#9970ab" stroke-width="2" opacity="1"/>
		<line x1="555" y1="274" x2="645" y2="274" stroke="#9970ab" stroke-width="1"/>
	</g>
	<text x="575" y="266.75" fill="#000000" font-family="Verdana" font-size="12">Épreuve</text>
	<text x="560" y="291.8" fill="#000000" font-family="Verdana" font-size="12">idÉpreuve</text>
	<line x1="560" y1="294" x2="621" y2="294" stroke="#000000" stroke-width="1"/>
	<text x="560" y="308.8" fill="#000000" font-family="Verdana" font-size="12">nomÉpreuve</text>
	<text x="560" y="325.8" fill="#000000" font-family="Verdana" font-size="12">codeÉpreuve</text>
	<text x="560" y="342.8" fill="#000000" font-family="Verdana" font-size="12">#idDiscipline</text>
</g>

<!-- Entity JOUEUR -->
<g>
	<g>
		<rect x="149" y="349" width="102" height="25" fill="#c2a5cf" stroke="none" stroke-width="0" opacity="1"/>
		<rect x="149" y="374" width="102" height="77" fill="#e7d4e8" stroke="none" stroke-width="0" opacity="1"/>
		<rect x="149" y="349" width="102" height="102" fill="none" stroke="#9970ab" stroke-width="2" opacity="1"/>
		<line x1="149" y1="374" x2="251" y2="374" stroke="#9970ab" stroke-width="1"/>
	</g>
	<text x="180" y="366.75" fill="#000000" font-family="Verdana" font-size="12">Joueur</text>
	<text x="154" y="391.8" fill="#000000" font-family="Verdana" font-size="12">idJoueur</text>
	<line x1="154" y1="394" x2="206" y2="394" stroke="#000000" stroke-width="1"/>
	<text x="154" y="408.8" fill="#000000" font-family="Verdana" font-size="12">prénomJoueur</text>
	<text x="154" y="425.8" fill="#000000" font-family="Verdana" font-size="12">nomJoueur</text>
	<text x="154" y="442.8" fill="#000000" font-family="Verdana" font-size="12">#équipeJoueur</text>
</g>

<!-- Entity COMPETENCE -->
<g>
	<g>
		<rect x="5" y="166" width="90" height="25" fill="#c2a5cf" stroke="none" stroke-width="0" opacity="1"/>
		<rect x="5" y="191" width="90" height="43" fill="#e7d4e8" stroke="none" stroke-width="0" opacity="1"/>
		<rect x="5" y="166" width="90" height="68" fill="none" stroke="#9970ab" stroke-width="2" opacity="1"/>
		<line x1="5" y1="191" x2="95" y2="191" stroke="#9970ab" stroke-width="1"/>
	</g>
	<text x="12" y="183.75" fill="#000000" font-family="Verdana" font-size="12">Compétence</text>
	<text x="10" y="208.8" fill="#000000" font-family="Verdana" font-size="12">#idDiscipline</text>
	<line x1="10" y1="211" x2="89" y2="211" stroke="#000000" stroke-width="1"/>
	<text x="10" y="225.8" fill="#000000" font-family="Verdana" font-size="12">#idJoueur</text>
</g>

<!-- Link from &quot;nomTypeSession&quot; (SESSION) to &quot;nomTypeSession&quot; (TYPESESSION) -->
<path d="M336 104.5 C296.5 113 309.67 121.5 257 121.5" fill="none" stroke="#5aae61" stroke-width="2"/>
<polygon points="257 121.5 269 115.5 265 121.5 269 127.5" fill="#5aae61" stroke-width="0"/>
<circle cx="336" cy="104.5" r="2" stroke="#5aae61" stroke-width="2" fill="#5aae61"/>

<!-- Link from &quot;idPrixSession&quot; (SESSION) to &quot;idPrixSession&quot; (PRIXSESSION) -->
<path d="M464 138.5 C495.5 117.5 485 96.5 527 96.5" fill="none" stroke="#5aae61" stroke-width="2"/>
<polygon points="527 96.5 515 102.5 519 96.5 515 90.5" fill="#5aae61" stroke-width="0"/>
<circle cx="464" cy="138.5" r="2" stroke="#5aae61" stroke-width="2" fill="#5aae61"/>

<!-- Link from &quot;idÉpreuve&quot; (SESSION) to &quot;idÉpreuve&quot; (EPREUVE) -->
<path d="M464 172.5 C509.5 230 494.33 287.5 555 287.5" fill="none" stroke="#5aae61" stroke-width="2"/>
<polygon points="555 287.5 543 293.5 547 287.5 543 281.5" fill="#5aae61" stroke-width="0"/>
<circle cx="464" cy="172.5" r="2" stroke="#5aae61" stroke-width="2" fill="#5aae61"/>

<!-- Link from &quot;idCatégorie&quot; (PRIXSESSION) to &quot;idCatégorie&quot; (CATEGORIE) -->
<path d="M673 130.5 C712.5 117.5 699.33 104.5 752 104.5" fill="none" stroke="#5aae61" stroke-width="2"/>
<polygon points="752 104.5 740 110.5 744 104.5 740 98.5" fill="#5aae61" stroke-width="0"/>
<circle cx="673" cy="130.5" r="2" stroke="#5aae61" stroke-width="2" fill="#5aae61"/>

<!-- Link from &quot;idÉpreuve&quot; (RESULTAT) to &quot;idÉpreuve&quot; (EPREUVE) -->
<path d="M540 596.5 C486 442 501 287.5 555 287.5" fill="none" stroke="#5aae61" stroke-width="2"/>
<polygon points="555 287.5 543 293.5 547 287.5 543 281.5" fill="#5aae61" stroke-width="0"/>
<circle cx="540" cy="596.5" r="2" stroke="#5aae61" stroke-width="2" fill="#5aae61"/>

<!-- Link from &quot;idTypeRésultat&quot; (RESULTAT) to &quot;idTypeRésultat&quot; (TYPERESULTAT) -->
<path d="M660 613.5 C701 559 687.33 504.5 742 504.5" fill="none" stroke="#5aae61" stroke-width="2"/>
<polygon points="742 504.5 730 510.5 734 504.5 730 498.5" fill="#5aae61" stroke-width="0"/>
<circle cx="660" cy="613.5" r="2" stroke="#5aae61" stroke-width="2" fill="#5aae61"/>

<!-- Link from &quot;idTemps&quot; (RESULTAT) to &quot;idTemps&quot; (TEMPS) -->
<path d="M660 630.5 C708 617.5 692 604.5 756 604.5" fill="none" stroke="#5aae61" stroke-width="2"/>
<polygon points="756 604.5 744 610.5 748 604.5 744 598.5" fill="#5aae61" stroke-width="0"/>
<circle cx="660" cy="630.5" r="2" stroke="#5aae61" stroke-width="2" fill="#5aae61"/>

<!-- Link from &quot;idScore&quot; (RESULTAT) to &quot;idScore&quot; (SCORE) -->
<path d="M660 647.5 C710.5 676 693.67 704.5 761 704.5" fill="none" stroke="#5aae61" stroke-width="2"/>
<polygon points="761 704.5 749 710.5 753 704.5 749 698.5" fill="#5aae61" stroke-width="0"/>
<circle cx="660" cy="647.5" r="2" stroke="#5aae61" stroke-width="2" fill="#5aae61"/>

<!-- Link from &quot;idÉquipe&quot; (MEDAILLE) to &quot;idÉquipe&quot; (EQUIPE) -->
<path d="M345 604.5 C304.5 592 318 579.5 264 579.5" fill="none" stroke="#5aae61" stroke-width="2"/>
<polygon points="264 579.5 276 573.5 272 579.5 276 585.5" fill="#5aae61" stroke-width="0"/>
<circle cx="345" cy="604.5" r="2" stroke="#5aae61" stroke-width="2" fill="#5aae61"/>

<!-- Link from &quot;idTypeMédaille&quot; (MEDAILLE) to &quot;idTypeMédaille&quot; (TYPEMEDAILLE) -->
<path d="M455 621.5 C509 563 512 504.5 458 504.5" fill="none" stroke="#5aae61" stroke-width="2"/>
<polygon points="458 504.5 470 498.5 466 504.5 470 510.5" fill="#5aae61" stroke-width="0"/>
<circle cx="455" cy="621.5" r="2" stroke="#5aae61" stroke-width="2" fill="#5aae61"/>

<!-- Link from &quot;idRésultat&quot; (MEDAILLE) to &quot;idRésultat&quot; (RESULTAT) -->
<path d="M455 638.5 C497.5 609 483.33 579.5 540 579.5" fill="none" stroke="#5aae61" stroke-width="2"/>
<polygon points="540 579.5 528 585.5 532 579.5 528 573.5" fill="#5aae61" stroke-width="0"/>
<circle cx="455" cy="638.5" r="2" stroke="#5aae61" stroke-width="2" fill="#5aae61"/>

<!-- Link from &quot;idDiscipline&quot; (EPREUVE) to &quot;idDiscipline&quot; (DISCIPLINE) -->
<path d="M555 338.5 C501.5 317.5 519.33 296.5 448 296.5" fill="none" stroke="#5aae61" stroke-width="2"/>
<polygon points="448 296.5 460 290.5 456 296.5 460 302.5" fill="#5aae61" stroke-width="0"/>
<circle cx="555" cy="338.5" r="2" stroke="#5aae61" stroke-width="2" fill="#5aae61"/>

<!-- Link from &quot;idÉquipe&quot; (JOUEUR) to &quot;idÉquipe&quot; (EQUIPE) -->
<path d="M149 438.5 C95 509 82 579.5 136 579.5" fill="none" stroke="#5aae61" stroke-width="2"/>
<polygon points="136 579.5 124 585.5 128 579.5 124 573.5" fill="#5aae61" stroke-width="0"/>
<circle cx="149" cy="438.5" r="2" stroke="#5aae61" stroke-width="2" fill="#5aae61"/>

<!-- Link from &quot;idDiscipline&quot; (COMPETENCE) to &quot;idDiscipline&quot; (DISCIPLINE) -->
<path d="M95 204.5 C223.5 250.5 180.67 296.5 352 296.5" fill="none" stroke="#5aae61" stroke-width="2"/>
<polygon points="352 296.5 340 302.5 344 296.5 340 290.5" fill="#5aae61" stroke-width="0"/>
<circle cx="95" cy="204.5" r="2" stroke="#5aae61" stroke-width="2" fill="#5aae61"/>

<!-- Link from &quot;idJoueur&quot; (COMPETENCE) to &quot;idJoueur&quot; (JOUEUR) -->
<path d="M95 221.5 C122 304.5 113 387.5 149 387.5" fill="none" stroke="#5aae61" stroke-width="2"/>
<polygon points="149 387.5 137 393.5 141 387.5 137 381.5" fill="#5aae61" stroke-width="0"/>
<circle cx="95" cy="221.5" r="2" stroke="#5aae61" stroke-width="2" fill="#5aae61"/>
</svg>